<svg version="1.1" xmlns="http://www.w3.org/2000/svg" viewBox="0 0 682.361328125 231.361328125">
  <!-- svg-source:excalidraw -->
  <defs>
    <style>
      @font-face {
        font-family: "Virgil";
        src: url("https://excalidraw.com/FG_Virgil.woff2");
      }
      @font-face {
        font-family: "Cascadia";
        src: url("https://excalidraw.com/Cascadia.woff2");
      }
    </style>
  </defs>
  <rect x="0" y="0" width="682.361328125" height="231.361328125" fill="#ffffff"></rect><g transform="translate(322.146484375 53.72265625) rotate(0 77.05859375 76.6796875)"><path d="M1.0656036082655191 1.7517745848745108 L154.02817397750914 -0.7717441562563181 L153.25502085126936 151.71307412348688 L-0.5896101649850607 152.28710100613534" stroke="none" stroke-width="0" fill="#ced4da"></path><path d="M-1.9432374481111765 1.9851422253996134 C43.47085687640575 -2.548694106530384, 83.38065394445294 -0.17982223887367588, 155.97077587805688 -1.4354028161615133 M0.025881496258080006 -0.6742941262200475 C42.84554998222521 1.074113912910907, 87.28908645677876 -0.15356876698067934, 154.54099940974265 -0.17530481237918139 M153.3848369475454 0.7064824644476175 C152.3009567794048 42.54332828916813, 153.30317007867924 88.263774348874, 156.0035984274 152.30125152505934 M154.11463522631675 0.7991970358416438 C153.9782924985273 41.30005754379818, 152.98568070286348 81.74301380828548, 155.07634451705962 152.82774548511952 M155.34247944317758 151.4267641250044 C111.26588005529266 150.94169738132413, 70.4309550906255 150.35139795381482, 1.553623354062438 152.31229894794524 M154.0141084464267 153.63037996273488 C103.00155657544019 154.82088708800475, 51.59633216569637 153.9809016279618, 0.13337713200598955 153.60691406112164 M-1.5786717776209116 153.29399746097624 C-0.6897065966513765 91.30161522539129, -0.25645920924216625 31.886314670104184, -0.662901783362031 1.068015331402421 M-0.9331390289589763 153.80530812125653 C0.7672670365085652 120.6308187368486, 1.6710461557617238 88.99211407381517, -0.6904601184651256 0.7996215699240565" stroke="#364fc7" stroke-width="1" fill="none"></path></g><g><g transform="translate(324.357421875 166.4140625) rotate(0 76.05835616849367 -0.18719306128130597)"><path d="M-0.4900615487247705 1.0389815066009758 C25.049108370766042 1.070451706026991, 127.13390760086476 0.6552336348841586, 152.60677388571202 0.5439559552818536 M1.4535174088552596 0.5388428522273898 C26.87881423164159 0.16206202955295645, 126.60601014424115 -1.6128950435792406, 151.59378861833363 -1.4078856669738888" stroke="#364fc7" stroke-width="1" fill="none"></path></g></g><g transform="translate(330.908203125 172.1953125) rotate(0 67 12.5)"><text x="0" y="18" font-family="Virgil, Segoe UI Emoji" font-size="20px" fill="#364fc7" text-anchor="start" style="white-space: pre;" direction="ltr">[[prototype]]</text></g><g transform="translate(355.384765625 10) rotate(0 31 12.5)"><text x="0" y="18" font-family="Virgil, Segoe UI Emoji" font-size="20px" fill="#364fc7" text-anchor="start" style="white-space: pre;" direction="ltr">person</text></g><g><g transform="translate(473.095703125 188.39383103676516) rotate(0 87.92431577369575 -53.28378315687429)"><path d="M-0.386527744308114 -0.4807454969733953 C28.950683327019206 -18.07528652961139, 146.65615859329696 -88.71936833089013, 176.2351592916995 -106.0868208167752 M1.6114064605906608 -1.7787408282235266 C30.731290732286865 -19.18522685459588, 145.89031636949625 -87.43935341538658, 175.0425245166197 -104.92004869316274" stroke="#364fc7" stroke-width="1" fill="none"></path></g><g transform="translate(473.095703125 188.39383103676516) rotate(0 87.92431577369575 -53.28378315687429)"><path d="M155.2740578863121 -82.4533643796943 C161.0243472726587 -88.35511024628862, 169.38503347401283 -97.9583373473107, 173.4363775011524 -103.24263231453055 M155.93287528839926 -80.67854823077991 C161.3778621511884 -85.88347515224577, 164.19583517377467 -91.3250032285063, 175.0929135652631 -104.5902816271087" stroke="#364fc7" stroke-width="1" fill="none"></path></g><g transform="translate(473.095703125 188.39383103676516) rotate(0 87.92431577369575 -53.28378315687429)"><path d="M144.7711311945412 -100.08312709202613 C153.78142337895733 -100.35081179788966, 165.47844552236973 -104.353808342871, 173.4363775011524 -103.24263231453055 M145.42994859662835 -98.30831094311174 C153.2737581751289 -99.40303719521405, 158.48955616437036 -100.81967902515277, 175.0929135652631 -104.5902816271087" stroke="#364fc7" stroke-width="1" fill="none"></path></g></g><g transform="translate(663.361328125 61.21875) rotate(0 4.5 12.5)"><text x="0" y="18" font-family="Virgil, Segoe UI Emoji" font-size="20px" fill="#364fc7" text-anchor="start" style="white-space: pre;" direction="ltr">?</text></g><g transform="translate(339.005859375 58.984375) rotate(0 45.5 37.5)"><text x="0" y="18" font-family="Virgil, Segoe UI Emoji" font-size="20px" fill="#364fc7" text-anchor="start" style="white-space: pre;" direction="ltr">name</text><text x="0" y="43" font-family="Virgil, Segoe UI Emoji" font-size="20px" fill="#364fc7" text-anchor="start" style="white-space: pre;" direction="ltr">age</text><text x="0" y="68" font-family="Virgil, Segoe UI Emoji" font-size="20px" fill="#364fc7" text-anchor="start" style="white-space: pre;" direction="ltr">greeting()</text></g><g transform="translate(10 68.001953125) rotate(0 77.05859375 76.6796875)"><path d="M-0.49908080138266087 0.8706364575773478 L152.6096312161535 0.750622445717454 L155.41326472721994 152.30321013368666 L1.8657381888478994 154.40748887695372" stroke="none" stroke-width="0" fill="#ced4da"></path><path d="M0.27863352932035923 1.9190938230603933 C42.619084016231504 1.7204236996478721, 84.3977001678155 0.8974741113490745, 153.83300876058638 -1.5919302348047495 M-0.6039315285161138 -0.3788130013272166 C46.056787247108154 -1.4696188137694117, 91.14501437691943 -1.3411072955294367, 153.16335021238774 -0.6797103313729167 M153.94439172185957 -1.025006616488099 C155.91446344961804 43.41276103014388, 152.081492055556 83.49741550233739, 155.2308168951422 153.36390790902078 M153.70815693121403 -0.3145858673378825 C154.31823791599672 37.09616060367989, 153.8394260857145 73.23828849101847, 154.29750879388303 153.64855202753097 M155.95326858200133 154.8292842861265 C96.55289580445023 153.5088189319263, 35.495107636884484 153.77181065832477, -0.6375702675431967 153.20499042235315 M154.85282118897885 153.13317569810897 C109.31147190682603 152.339641601291, 65.74835119370398 152.7392388586667, 0.46880249958485365 152.9248324604705 M-0.7908662613481283 153.45407346449792 C-2.3087127418482853 104.53476798917836, -0.5656991810763432 56.51222726910781, -1.592892473563552 1.4874086137861013 M-0.8430649759247899 153.76992213446647 C-1.5799644308521237 116.36387771229056, -1.5949071662857022 81.0144710540917, -0.5476527037099004 0.25633921939879656" stroke="#364fc7" stroke-width="1" fill="none"></path></g><g><g transform="translate(12.62109375 180.693359375) rotate(0 75.93651973446833 0.31229920401349887)"><path d="M0.16718011759221563 1.151456293836236 C25.686366745457054 1.3694564157476028, 127.61847394369542 1.1571684135744968, 153.07722851894795 1.0595568869262932 M-1.2041890500113368 0.7103669027611614 C24.190633253045377 0.6180442118768892, 126.73497381705789 -0.237444506076475, 152.31123193401842 -0.6215942462161184" stroke="#364fc7" stroke-width="1" fill="none"></path></g></g><g transform="translate(19.171875 186.474609375) rotate(0 67 12.5)"><text x="0" y="18" font-family="Virgil, Segoe UI Emoji" font-size="20px" fill="#364fc7" text-anchor="start" style="white-space: pre;" direction="ltr">[[prototype]]</text></g><g transform="translate(43.6484375 24.279296875) rotate(0 37 12.5)"><text x="0" y="18" font-family="Virgil, Segoe UI Emoji" font-size="20px" fill="#364fc7" text-anchor="start" style="white-space: pre;" direction="ltr">student</text></g><g transform="translate(27.26953125 73.669921875) rotate(0 51.5 25)"><text x="0" y="18" font-family="Virgil, Segoe UI Emoji" font-size="20px" fill="#364fc7" text-anchor="start" style="white-space: pre;" direction="ltr">id</text><text x="0" y="43" font-family="Virgil, Segoe UI Emoji" font-size="20px" fill="#364fc7" text-anchor="start" style="white-space: pre;" direction="ltr">introduce()</text></g><g><g transform="translate(116.869140625 202.0625) rotate(0 100.56743723489348 -35.78332820869983)"><path d="M-0.5779157426208258 1.0291879501193761 C33.1922309094419 -10.937134912982584, 168.01991292374828 -60.360080662742256, 201.7127902124077 -72.59584436751902 M1.319539763163775 0.5239076785929502 C35.00513274374729 -11.152691158186645, 167.49745146476354 -58.45716731620953, 200.72880336029456 -70.96518272174522" stroke="#364fc7" stroke-width="1" fill="none"></path></g><g transform="translate(116.869140625 202.0625) rotate(0 100.56743723489348 -35.78332820869983)"><path d="M179.4816785770658 -51.77315796222334 C183.3417932977788 -56.215838308845775, 188.8436120674097 -61.48629282384188, 202.35006578585134 -71.00663867047056 M177.80473255638066 -51.63452245443855 C183.7774665614259 -55.76320359440963, 188.39290225271412 -61.62690331501445, 200.68755329811947 -70.1469339757599" stroke="#364fc7" stroke-width="1" fill="none"></path></g><g transform="translate(116.869140625 202.0625) rotate(0 100.56743723489348 -35.78332820869983)"><path d="M172.4441309955942 -71.04990370481077 C177.7547741680446 -71.13441893733044, 184.83529683946918 -72.0806009176969, 202.35006578585134 -71.00663867047056 M170.76718497490907 -70.91126819702599 C178.41930520474273 -70.30404689182143, 184.75186699408601 -71.46431792267697, 200.68755329811947 -70.1469339757599" stroke="#364fc7" stroke-width="1" fill="none"></path></g></g></svg>