<svg version="1.1" xmlns="http://www.w3.org/2000/svg" viewBox="0 0 442.572265625 474.115234375">
  <!-- svg-source:excalidraw -->
  <defs>
    <style>
      @font-face {
        font-family: "Virgil";
        src: url("https://excalidraw.com/FG_Virgil.woff2");
      }
      @font-face {
        font-family: "Cascadia";
        src: url("https://excalidraw.com/Cascadia.woff2");
      }
    </style>
  </defs>
  <rect x="0" y="0" width="442.572265625" height="474.115234375" fill="#ffffff"></rect><g transform="translate(10 53.72265625) rotate(0 77.05859375 76.6796875)"><path d="M1.0656036082655191 1.7517745848745108 L154.02817397750914 -0.7717441562563181 L153.25502085126936 151.71307412348688 L-0.5896101649850607 152.28710100613534" stroke="none" stroke-width="0" fill="#ced4da"></path><path d="M-1.9432374481111765 1.9851422253996134 C43.47085687640575 -2.548694106530384, 83.38065394445294 -0.17982223887367588, 155.97077587805688 -1.4354028161615133 M0.025881496258080006 -0.6742941262200475 C42.84554998222521 1.074113912910907, 87.28908645677876 -0.15356876698067934, 154.54099940974265 -0.17530481237918139 M153.3848369475454 0.7064824644476175 C152.3009567794048 42.54332828916813, 153.30317007867924 88.263774348874, 156.0035984274 152.30125152505934 M154.11463522631675 0.7991970358416438 C153.9782924985273 41.30005754379818, 152.98568070286348 81.74301380828548, 155.07634451705962 152.82774548511952 M155.34247944317758 151.4267641250044 C111.26588005529266 150.94169738132413, 70.4309550906255 150.35139795381482, 1.553623354062438 152.31229894794524 M154.0141084464267 153.63037996273488 C103.00155657544019 154.82088708800475, 51.59633216569637 153.9809016279618, 0.13337713200598955 153.60691406112164 M-1.5786717776209116 153.29399746097624 C-0.6897065966513765 91.30161522539129, -0.25645920924216625 31.886314670104184, -0.662901783362031 1.068015331402421 M-0.9331390289589763 153.80530812125653 C0.7672670365085652 120.6308187368486, 1.6710461557617238 88.99211407381517, -0.6904601184651256 0.7996215699240565" stroke="#364fc7" stroke-width="1" fill="none"></path></g><g><g transform="translate(12.2109375 166.4140625) rotate(0 76.05835616849365 -0.18719306128129176)"><path d="M-0.4900615487247705 1.0389815066009758 C25.049108370766042 1.070451706026991, 127.13390760086476 0.6552336348841586, 152.60677388571202 0.5439559552818536 M1.4535174088552596 0.5388428522273898 C26.87881423164159 0.16206202955295645, 126.60601014424115 -1.6128950435792406, 151.59378861833363 -1.4078856669738888" stroke="#364fc7" stroke-width="1" fill="none"></path></g></g><g transform="translate(18.76171875 172.1953125) rotate(0 67 12.5)"><text x="0" y="18" font-family="Virgil, Segoe UI Emoji" font-size="20px" fill="#364fc7" text-anchor="start" style="white-space: pre;" direction="ltr">[[prototype]]</text></g><g transform="translate(43.23828125 10) rotate(0 31 12.5)"><text x="0" y="18" font-family="Virgil, Segoe UI Emoji" font-size="20px" fill="#364fc7" text-anchor="start" style="white-space: pre;" direction="ltr">person</text></g><g><g transform="translate(160.94921875 191.046875) rotate(0 122.6196282736957 -49.21208937270566)"><path d="M-0.386527744308114 -0.4807454969733953 C40.51578749368588 -16.718055268221846, 204.4816794266303 -81.93321202394242, 245.6257842916995 -97.94343324843794 M1.6114064605906608 -1.7787408282235266 C42.29639489895353 -17.827995593206335, 203.7158372028296 -80.65319710843886, 244.4331495166197 -96.77666112482548" stroke="#364fc7" stroke-width="1" fill="none"></path></g><g transform="translate(160.94921875 191.046875) rotate(0 122.6196282736957 -49.21208937270566)"><path d="M221.13362442558346 -77.70805311330759 C227.990868905866 -82.51899997890034, 237.47322315287715 -91.0428018461029, 242.8270025011524 -95.09924474619329 M221.79244182767061 -75.93323696439319 C228.0437639368794 -80.33369836318337, 231.66787989317652 -84.99944341871692, 244.4835385652631 -96.44689405877143" stroke="#364fc7" stroke-width="1" fill="none"></path></g><g transform="translate(160.94921875 191.046875) rotate(0 122.6196282736957 -49.21208937270566)"><path d="M213.64104982603504 -96.81253761972756 C222.79565023277118 -95.53066307271438, 234.6580787837011 -97.9857775936362, 242.8270025011524 -95.09924474619329 M214.2998672281222 -95.03772147081317 C222.26283018179583 -95.0157551057287, 227.59750577223758 -95.31993397414777, 244.4835385652631 -96.44689405877143" stroke="#364fc7" stroke-width="1" fill="none"></path></g></g><g transform="translate(420.60546875 75.5625) rotate(0 4.5 12.5)"><text x="0" y="18" font-family="Virgil, Segoe UI Emoji" font-size="20px" fill="#364fc7" text-anchor="start" style="white-space: pre;" direction="ltr">?</text></g><g transform="translate(26.859375 58.984375) rotate(0 45.5 37.5)"><text x="0" y="18" font-family="Virgil, Segoe UI Emoji" font-size="20px" fill="#364fc7" text-anchor="start" style="white-space: pre;" direction="ltr">name</text><text x="0" y="43" font-family="Virgil, Segoe UI Emoji" font-size="20px" fill="#364fc7" text-anchor="start" style="white-space: pre;" direction="ltr">age</text><text x="0" y="68" font-family="Virgil, Segoe UI Emoji" font-size="20px" fill="#364fc7" text-anchor="start" style="white-space: pre;" direction="ltr">greeting()</text></g><g transform="translate(12.556640625 310.755859375) rotate(0 77.05859375 76.6796875)"><path d="M-0.49908080138266087 0.8706364575773478 L152.6096312161535 0.750622445717454 L155.41326472721994 152.30321013368666 L1.8657381888478994 154.40748887695372" stroke="none" stroke-width="0" fill="#ced4da"></path><path d="M0.27863352932035923 1.9190938230603933 C42.619084016231504 1.7204236996478721, 84.3977001678155 0.8974741113490745, 153.83300876058638 -1.5919302348047495 M-0.6039315285161138 -0.3788130013272166 C46.056787247108154 -1.4696188137694117, 91.14501437691943 -1.3411072955294367, 153.16335021238774 -0.6797103313729167 M153.94439172185957 -1.025006616488099 C155.91446344961804 43.41276103014388, 152.081492055556 83.49741550233739, 155.2308168951422 153.36390790902078 M153.70815693121403 -0.3145858673378825 C154.31823791599672 37.09616060367989, 153.8394260857145 73.23828849101847, 154.29750879388303 153.64855202753097 M155.95326858200133 154.8292842861265 C96.55289580445023 153.5088189319263, 35.495107636884484 153.77181065832477, -0.6375702675431967 153.20499042235315 M154.85282118897885 153.13317569810897 C109.31147190682603 152.339641601291, 65.74835119370398 152.7392388586667, 0.46880249958485365 152.9248324604705 M-0.7908662613481283 153.45407346449792 C-2.3087127418482853 104.53476798917836, -0.5656991810763432 56.51222726910781, -1.592892473563552 1.4874086137861013 M-0.8430649759247899 153.76992213446647 C-1.5799644308521237 116.36387771229056, -1.5949071662857022 81.0144710540917, -0.5476527037099004 0.25633921939879656" stroke="#364fc7" stroke-width="1" fill="none"></path></g><g><g transform="translate(15.177734375 423.447265625) rotate(0 75.93651973446833 0.31229920401349887)"><path d="M0.16718011759221563 1.151456293836236 C25.686366745457054 1.3694564157476028, 127.61847394369542 1.1571684135744968, 153.07722851894795 1.0595568869262932 M-1.2041890500113368 0.7103669027611614 C24.190633253045377 0.6180442118768892, 126.73497381705789 -0.237444506076475, 152.31123193401842 -0.6215942462161184" stroke="#364fc7" stroke-width="1" fill="none"></path></g></g><g transform="translate(21.728515625 429.228515625) rotate(0 67 12.5)"><text x="0" y="18" font-family="Virgil, Segoe UI Emoji" font-size="20px" fill="#364fc7" text-anchor="start" style="white-space: pre;" direction="ltr">[[prototype]]</text></g><g transform="translate(46.205078125 267.033203125) rotate(0 37 12.5)"><text x="0" y="18" font-family="Virgil, Segoe UI Emoji" font-size="20px" fill="#364fc7" text-anchor="start" style="white-space: pre;" direction="ltr">student</text></g><g><g transform="translate(163.916015625 448.080078125) rotate(0 123.13089880081822 -48.60934785781427)"><path d="M0.8408068869262932 0.18923881910741325 C41.722015142689145 -16.10321023150658, 205.7227552173038 -81.16372042369719, 246.43870582841333 -97.40793453473599 M-0.17690822677686802 -0.7570147462002934 C40.47589206368351 -16.89035691221555, 204.38847778360665 -80.08972241806488, 245.6728548601083 -95.96002558642999" stroke="#364fc7" stroke-width="1" fill="none"></path></g><g transform="translate(163.916015625 448.080078125) rotate(0 123.13089880081822 -48.60934785781427)"><path d="M223.3710999329119 -75.6721303180977 C231.66993712896308 -85.80499692903565, 240.84511942297223 -90.94433317793812, 246.92327006047586 -97.16788864346222 M222.7223676516219 -76.62808046743267 C227.96764342042204 -81.9820065777795, 234.55245373429582 -86.53916900570339, 245.60511053333053 -96.0464234755002" stroke="#364fc7" stroke-width="1" fill="none"></path></g><g transform="translate(163.916015625 448.080078125) rotate(0 123.13089880081822 -48.60934785781427)"><path d="M215.99348612640946 -94.82130306545011 C227.26885880797238 -97.42365779952091, 239.36524189818147 -94.98078926740962, 246.92327006047586 -97.16788864346222 M215.34475384511947 -95.77725321478508 C222.58466040238838 -96.07448743319502, 231.10328125534545 -95.61229359704897, 245.60511053333053 -96.0464234755002" stroke="#364fc7" stroke-width="1" fill="none"></path></g></g><g transform="translate(423.572265625 332.595703125) rotate(0 4.5 12.5)"><text x="0" y="18" font-family="Virgil, Segoe UI Emoji" font-size="20px" fill="#364fc7" text-anchor="start" style="white-space: pre;" direction="ltr">?</text></g><g transform="translate(29.826171875 316.423828125) rotate(0 51.5 25)"><text x="0" y="18" font-family="Virgil, Segoe UI Emoji" font-size="20px" fill="#364fc7" text-anchor="start" style="white-space: pre;" direction="ltr">id</text><text x="0" y="43" font-family="Virgil, Segoe UI Emoji" font-size="20px" fill="#364fc7" text-anchor="start" style="white-space: pre;" direction="ltr">introduce()</text></g></svg>