<svg version="1.1" xmlns="http://www.w3.org/2000/svg" viewBox="0 0 1684.480633112416 1561.0595703125">
  <!-- svg-source:excalidraw -->
  <defs>
    <style>
      @font-face {
        font-family: "Virgil";
        src: url("https://excalidraw.com/FG_Virgil.woff2");
      }
      @font-face {
        font-family: "Cascadia";
        src: url("https://excalidraw.com/Cascadia.woff2");
      }
    </style>
  </defs>
  <rect x="0" y="0" width="1684.480633112416" height="1561.0595703125" fill="#ffffff"></rect><g transform="translate(10 109.28515625) rotate(0 75.9609375 72.44140625)"><path d="M101.16625388231346 4.661414066925346 C111.71654013681174 6.929472475665278, 122.64882510858847 13.157061028547226, 130.33271797750123 20.723901661785263 C138.01661084641398 28.2907422950233, 143.77984592684103 39.80008709541991, 147.26961109579003 50.06245786635357 C150.75937626473902 60.324828637287226, 152.7421915934856 71.6422543245962, 151.27130899119516 82.2981262873872 C149.80042638890473 92.95399825017822, 144.78217240605807 105.18953829098785, 138.44431548204744 113.99768964309968 C132.10645855803682 122.8058409952115, 122.92483120177504 130.0570115013432, 113.24416744713142 135.14703440005815 C103.5635036924878 140.2370572987731, 91.39166227217817 143.76201167255354, 80.36033295418575 144.53782703538945 C69.32900363619333 145.31364239822537, 57.41906115218297 143.90817853246523, 47.056191539176886 139.80192657707363 C36.6933219261708 135.69567462168203, 25.666712021775094 127.86974057442858, 18.183115276149266 119.90031530303993 C10.699518530523438 111.93089003165129, 4.822682236475957 102.18808506177, 2.1546110654219177 91.98537494874175 C-0.5134601056321224 81.7826648357135, 0.04005740145161241 69.35354558231592, 2.1746882498250244 58.68405462487047 C4.309319098198436 48.01456366742502, 8.139417585623036 36.438288378265256, 14.96239615566239 27.968429204069054 C21.785374725701743 19.49857002987285, 33.089282061162244 12.478566081351754, 43.112559670061145 7.864899579693244 C53.13583727896005 3.2512330780347343, 64.36067028248986 0.3183319867337128, 75.10206180905578 0.2864301941179974 C85.8434533356217 0.254528401502282, 101.02577515115519 5.733855892796984, 107.56090882945668 7.673488823998952 C114.09604250775817 9.61312175520092, 114.83051468506449 10.863227821643099, 114.31286387886476 11.924227781329805 M109.10204049391457 6.821901800136956 C118.97487822399862 10.078617917334771, 127.8654425977785 19.332470208079584, 134.746067250858 27.369030612387427 C141.6266919039375 35.40559101669527, 148.11076715527858 44.62853762320587, 150.38578841239166 55.041264225983994 C152.66080966950474 65.45399082876212, 151.1000791930469 79.29617893883052, 148.3961947935365 89.84539022905618 C145.6923103940261 100.39460151928184, 141.10921428486427 110.04197272210897, 134.1624820153292 118.33653196733795 C127.21574974579416 126.63109121256693, 116.87149378286914 135.22461785661687, 106.71580117632618 139.61274570043005 C96.56010856978322 144.00087354424323, 84.26425311597875 145.29579980062908, 73.22832637607146 144.66529903021708 C62.19239963616418 144.0347982598051, 50.42569417128783 140.91314511266847, 40.500240736882496 135.82974107795812 C30.574787302477166 130.74633704324776, 20.0123512208903 122.51912257271204, 13.675605769639482 114.16487482195504 C7.338860318388665 105.81062707119804, 4.381280139482062 96.28944722216922, 2.4797680293775954 85.70425457341614 C0.5782559192731291 75.11906192466306, -0.5034570229908084 60.9840517903053, 2.266533109012684 50.65371892943658 C5.036523241016177 40.32338606856786, 11.313488246045555 31.356406465602664, 19.09970882139855 23.72225740820381 C26.885929396751546 16.088108350804955, 38.29618497914676 8.867686053302076, 48.98385656113065 4.8488245850434595 C59.67152814311454 0.8299631167848425, 73.40474992774334 -0.8406803332364514, 83.22573831330192 -0.3909114013478927 C93.0467266988605 0.05885753054066595, 103.90144066484817 6.166503715692784, 107.90978687448211 7.547438176374811 C111.91813308411605 8.928372637056839, 107.7892854084408 6.783844642474168, 107.2758155711056 7.894695362744272" stroke="none" stroke-width="0" fill="#ced4da"></path><path d="M54.982598642478095 3.365339949539546 C64.86013021632345 -0.6983710269195571, 77.53179010627619 -0.6909633138835101, 88.32237451773722 1.081301703397429 C99.11295892919824 2.8535667206783684, 110.7021260043381 7.671236251678848, 119.72610511124428 13.99893005322518 C128.75008421815048 20.326623854771512, 137.25108031741675 29.71140440629035, 142.46624915917434 39.047464512675425 C147.68141800093193 48.3835246190605, 150.52521090913896 59.575513907538365, 151.01711816178974 70.01529069153563 C151.50902541444052 80.45506747553289, 149.91159906435217 91.8102020593134, 145.41769267507902 101.68612521665898 C140.92378628580587 111.56204837400456, 132.82635880895532 122.40851610593093, 124.05367982615084 129.27082963560912 C115.28100084334636 136.1331431652873, 103.71506734217716 140.63543446533765, 92.78161877825212 142.8600063947281 C81.84817021432708 145.08457832411852, 69.08000571878027 145.01258235370733, 58.452988442600585 142.61826121195173 C47.825971166420906 140.22394007019614, 37.68052953077276 135.21066294268587, 29.019515121174038 128.4940795441945 C20.358500711575317 121.77749614570314, 11.154264935240619 112.0188831500965, 6.486901985008274 102.31876082100354 C1.8195390347759286 92.61863849191057, 0.6906560923387464 81.0151089160874, 1.0153374197799678 70.29334556963673 C1.3400187472211893 59.57158222318606, 3.377636762044893 47.35709237131547, 8.434989949655602 37.988180742299534 C13.49234313726631 28.6192691132836, 21.993922112283563 20.29386652260527, 31.359456545444225 14.079875795541142 C40.724990978604886 7.865885068477013, 57.159261281201196 2.706751441352781, 64.62819654861958 0.7042363799147608 C72.09713181603797 -1.2982786815232594, 75.69940818047547 0.8410869394402478, 76.17306814995455 2.0647854269130193 M110.83421747866481 7.172109487642288 C120.68272504588404 11.20491778319741, 131.94958888076812 22.398447866457317, 138.4231364487071 31.089376533697276 C144.8966840166461 39.780305200937235, 147.84624810177095 49.08919082854269, 149.6755028862988 59.31768149108204 C151.50475767082665 69.5461721536214, 152.5770373535755 81.81302450339756, 149.39866515587414 92.46032050893339 C146.2202929581728 103.10761651446923, 138.32877388779053 115.061896785652, 130.60526970009064 123.20145752429704 C122.88176551239074 131.3410182629421, 113.37814127344717 137.5167424862565, 103.05764002967473 141.29768494080366 C92.73713878590229 145.07862739535082, 79.69128045164484 146.9584674528539, 68.682262237456 145.88711225158005 C57.67324402326716 144.8157570503062, 46.4764652810481 140.81749155192455, 37.003530744541685 134.86955373316056 C27.53059620803527 128.92161591439657, 17.913334370411018 119.16873397883617, 11.844655018417512 110.19948533899607 C5.7759756664240065 101.23023669915597, 1.8485884075522587 91.59283406476891, 0.5914546325806498 81.05406189411991 C-0.6656791423909592 70.51528972347091, 0.2549503963269659 56.954580043460645, 4.301852368587859 46.96685231510209 C8.348754340848753 36.97912458674353, 16.6961103232429 28.269227463859014, 24.872866466146007 21.127695523968576 C33.049622609049116 13.986163584078138, 42.936443328082305 7.412039044816584, 53.3623892260065 4.117660675759467 C63.78833512393069 0.8232823067023496, 77.46668926335128 0.7028928890512335, 87.42854185369117 1.3614253096258722 C97.39039444403106 2.019957730200511, 109.08916739076481 6.557660799261626, 113.13350476804581 8.068855199207299 C117.1778421453268 9.580049599152971, 112.71068783780129 9.167372521577812, 111.69456611737715 10.428591709299909" stroke="#364fc7" stroke-width="1" fill="none"></path></g><g transform="translate(57.875 68.6171875) rotate(0 29 11.5)"><text x="0" y="18" font-family="Helvetica, Segoe UI Emoji" font-size="20px" fill="#364fc7" text-anchor="start" style="white-space: pre;" direction="ltr">Object</text></g><g><g transform="translate(18.09765625 211.9609375) rotate(0 67.23053640387953 1.8053575156069996)"><path d="M-0.6985657844692469 -0.46898211501538756 C21.808348453665776 0.2643787755320468, 112.6136691020181 4.602082889651259, 135.1596385922283 5.371516701951623 M1.1355484493449333 -1.7608016707375647 C23.558481529938682 -1.4318964550768336, 112.57177729287496 2.5825637418155867, 134.71786432702095 3.765960877947509" stroke="#364fc7" stroke-width="1" fill="none"></path></g></g><g transform="translate(46.2734375 147.76171875) rotate(0 41.5 11.5)"><text x="0" y="18" font-family="Helvetica, Segoe UI Emoji" font-size="20px" fill="#364fc7" text-anchor="start" style="white-space: pre;" direction="ltr">prototype</text></g><g transform="translate(873.46875 107.5) rotate(0 81.6328125 80.232421875)"><path d="M1.8190498892217875 -0.6427973750978708 L162.79353165067732 -0.41806515492498875 L162.8425316158682 161.32409832440317 L1.0775610152631998 159.41261151991785" stroke="none" stroke-width="0" fill="#ced4da"></path><path d="M1.6413299199193716 0.6365644279867411 C39.076875897562424 -1.1439006054234049, 77.800421982017 -0.559198888523533, 162.25187835656106 1.4357745591551065 M-0.563697281293571 -0.2314653219655156 C35.82522563366656 -1.036267747167003, 69.6991920743225 -0.9382868604692338, 162.82463440019637 0.9427568791434169 M165.24642953835428 -0.5841291006654501 C162.00308778317955 43.56657980762939, 162.89741190703896 90.69433377512833, 161.50050786696374 160.49571495689452 M163.44799098093063 0.9882655022665858 C164.80518305652407 33.30540320754117, 163.47273227923182 66.14340253848714, 163.67631613928825 160.93682833295316 M161.88423446379602 159.3622706476599 C129.56661882682675 161.59444251462074, 93.94313122635648 161.2581809441671, 1.7808050867170095 161.70718466676772 M163.38865434844047 161.21452231984586 C105.54348601866076 159.37143808329986, 49.18049256223311 160.42687937344002, 0.03415193874388933 161.01307885628194 M-0.7954139951616526 161.03588330186903 C0.11577652062678667 112.82641083499365, 0.2564423498084578 69.06480862263487, 0.07659569941461086 1.351006442680955 M0.5686260731890798 160.61402266006917 C-0.03316707084286463 124.07793331728718, 1.268627070688126 89.4239726900203, -0.14601713698357344 -0.39321933407336473" stroke="#364fc7" stroke-width="1" fill="none"></path></g><g transform="translate(889.59765625 64.79296875) rotate(0 73.5 11.5)"><text x="0" y="18" font-family="Helvetica, Segoe UI Emoji" font-size="20px" fill="#364fc7" text-anchor="start" style="white-space: pre;" direction="ltr">Object.prototype</text></g><g><g transform="translate(144.25390625 159.93009050905698) rotate(0 361.35572132917116 0.5319160445465059)"><path d="M0.38193865679204464 -0.23909799121320252 C120.81923846409966 -0.1867331495861739, 602.9952903845036 1.0289818555213364, 723.5881249360739 1.2989870017137948 M-0.8766822777315975 -1.4102283819392323 C119.32704349560039 -1.3000575765575497, 601.9785232474158 1.8425074863903075, 722.6930341998859 2.474060471032244" stroke="#364fc7" stroke-width="1" fill="none"></path></g><g transform="translate(144.25390625 159.93009050905698) rotate(0 361.35572132917116 0.5319160445465059)"><path d="M694.0440084258184 12.737100351319178 C703.9547220096968 9.392173097854526, 714.8366840826602 6.235423133460964, 720.9667791760339 2.4178041115891755 M695.3799484804363 11.899476808213159 C703.5328067261958 8.807599853326643, 712.2779577064877 7.066641123265958, 722.5103473317622 1.9962492714193285" stroke="#364fc7" stroke-width="1" fill="none"></path></g><g transform="translate(144.25390625 159.93009050905698) rotate(0 361.35572132917116 0.5319160445465059)"><path d="M694.1644810090694 -7.783754619722469 C704.1977790462515 -3.322975615452055, 715.0339181062875 1.3255972350842224, 720.9667791760339 2.4178041115891755 M695.5004210636872 -8.621378162828488 C703.4987557770073 -5.096303842816265, 712.2050587264296 -0.22003244572550607, 722.5103473317622 1.9962492714193285" stroke="#364fc7" stroke-width="1" fill="none"></path></g></g><g transform="translate(21.79296875 417.83984375) rotate(0 75.9609375 72.44140625)"><path d="M111.2517271437049 8.04135958222507 C121.33037520392057 11.620815979661776, 130.24783874563067 20.635810398839382, 136.82214402262375 28.99997826738796 C143.39644929961682 37.36414613593654, 148.6722407493052 47.703166563605144, 150.69755880566336 58.22636679351653 C152.72287686202154 68.74956702342793, 151.8753121307853 81.86597759567579, 148.97405236077276 92.1391796468563 C146.07279259076023 102.41238169803682, 140.75689419574252 111.93560116693962, 133.29000018558813 119.86557910059966 C125.82310617543374 127.7955570342597, 114.59595383319056 135.61165277080272, 104.17268829984644 139.7190472488165 C93.74942276650232 143.8264417268303, 81.95042061502068 145.22330647014914, 70.7504069855234 144.50994596868247 C59.55039335602613 143.7965854672158, 46.66738330514182 140.78910085215267, 36.9726065228628 135.4388842400165 C27.277829740583776 130.08866762788034, 18.55526864831309 121.19681610043683, 12.58174629184927 112.4086462958654 C6.608223935385454 103.62047649129396, 2.6723896499218 93.41726232683239, 1.131472384079899 82.70986541258787 C-0.40944488176200156 72.00246849834336, -0.13675141286824433 58.46245799081905, 3.336242696797868 48.16426481039835 C6.80923680646398 37.866071629977654, 13.789756247544515 28.25298328827145, 21.96943704207657 20.9207063300637 C30.149117836608625 13.588429371855952, 41.93620325727416 7.646418239697452, 52.414327463990205 4.170603061151851 C62.89245167070625 0.6947878826062506, 74.26878756344503 -1.2149950490719224, 84.83818228237286 0.06581525879009575 C95.40757700130068 1.3466255666521139, 109.94632917505265 9.11215360637731, 115.83069577755714 11.85546490832396 C121.71506238006162 14.598776210270609, 120.7351051926051 15.668403304957684, 120.14438189739978 16.525683070469988 M84.48486598975185 0.8673124502826965 C95.19876835490517 0.45300117837558673, 107.10897188802416 4.751650981935094, 116.346069824936 10.174100115405643 C125.58316776184783 15.596549248876194, 134.03422253846094 24.1597046006736, 139.90745361122288 33.40200725110599 C145.78068468398482 42.644309901538385, 150.3253514440639 54.94741582225817, 151.58545626150766 65.62791601800001 C152.84556107895142 76.30841621374184, 151.32864019778327 87.40900103379205, 147.4680825158855 97.485008425557 C143.60752483398772 107.56101581732194, 136.82592884368424 118.9154905986302, 128.42211017012102 126.08396036858966 C120.01829149655778 133.2524301385491, 107.69861717393873 137.4240717888673, 97.04517047450611 140.49582704531372 C86.39172377507349 143.56758230176013, 75.4412560068678 145.85349135551294, 64.5014299735253 144.51449190726817 C53.561603940182806 143.1754924590234, 40.65352519438473 138.5654675530064, 31.406214274451123 132.461830355845 C22.15890335451752 126.35819315868358, 14.246537818652094 117.27298961989848, 9.017564453923669 107.89266872429965 C3.7885910891952426 98.51234782870083, 0.6580892708434641 86.81410371003619, 0.03237408608056569 76.17990498225198 C-0.5933410986823328 65.54570625446777, 0.869632568742575 53.860117421487445, 5.263273345346278 44.0874763575944 C9.656914121949981 34.31483529370135, 17.45578476515179 24.74332911816733, 26.39421874570278 17.5440585988937 C35.33265272625377 10.344788079620066, 49.25516625406603 3.8927095998888155, 58.8938772286522 0.8918532419526031 C68.53258820323836 -2.1090031159836093, 80.24095521890531 -0.41275651919443845, 84.22648459321978 -0.4610795487235748 C88.21201396753425 -0.5094025782527112, 83.06754046600554 -0.6159568985815629, 82.80705347453903 0.6019150647777849" stroke="none" stroke-width="0" fill="#ced4da"></path><path d="M60.709896795158706 2.4148034227607127 C70.77216074354675 -0.7777013585362211, 83.98204102412187 -0.5496753940700785, 94.72329505409087 2.0674933412290954 C105.46454908405987 4.684662076528269, 116.64676159462049 11.145597238884768, 125.15742097497267 18.117815834555756 C133.66808035532483 25.090034430226744, 141.23985005215445 34.06097748837454, 145.78725133620392 43.90080491525502 C150.3346526202534 53.740632342135505, 153.1956162480634 66.43264668484125, 152.44182867926952 77.15678039583867 C151.68804111047564 87.88091410683609, 146.77700637513738 99.17083835148166, 141.26452592344057 108.24560718123952 C135.75204547174377 117.32037601099738, 128.60676904422178 125.61711822140559, 119.36694596908862 131.60539337438584 C110.12712289395547 137.5936685273661, 96.86917713080271 142.69129361898837, 85.8255874726417 144.17525809912104 C74.78199781448069 145.6592225792537, 63.55765011948281 143.80982437537838, 53.10540802012256 140.50918025518183 C42.65316592076231 137.20853613498528, 31.271131026982168 131.67120916528438, 23.11213487648022 124.37139337794167 C14.953138725978272 117.07157759059896, 7.821427354874114 106.76628072523852, 4.151431117110874 96.71028553112562 C0.48143487934763485 86.65429033701272, -0.380778609280803 74.59631769844131, 1.0921574499007818 64.03542221326434 C2.5650935090823666 53.47452672808737, 7.1167824403709545 42.37703266165653, 12.989047472200383 33.34491262006379 C18.86131250402981 24.312792578471043, 27.237473329634597 15.40762939460124, 36.32574764087735 9.842701963707874 C45.41402195212011 4.277774532814508, 61.33655020781522 1.4623400162239395, 67.51869333965692 -0.04465196529640991 C73.70083647149862 -1.5516439468167593, 73.20711790476894 -0.5105809691739343, 73.41860643192753 0.8007500745857783 M104.49439816306827 5.895980220898693 C114.53062940842793 8.830903816727139, 123.69054418091571 16.94808172612518, 131.36975726945178 24.984309638797058 C139.04897035798786 33.020537551468934, 147.33494484402613 44.051531021439004, 150.56967669428468 54.113347696929964 C153.80440854454324 64.17516437242092, 152.8941902874773 75.12733908708185, 150.77814837100317 85.35520969174283 C148.66210645452904 95.5830802964038, 144.731786067838 107.04775338246671, 137.87342519543986 115.48057132489585 C131.01506432304174 123.91338926732499, 119.89659781985276 130.98207576226952, 109.62798313661449 135.95211734631764 C99.35936845337622 140.92215893036575, 87.37153959868868 144.8553699181228, 76.26173709601024 145.30082082918463 C65.15193459333179 145.74627174024647, 52.7379440437494 143.5035925586207, 42.969168120543785 138.62482281268868 C33.20039219733817 133.74605306675664, 24.456143369210498 124.31034330067241, 17.649081556776537 116.02820235359243 C10.842019744342576 107.74606140651245, 4.541622944285036 99.21690708688232, 2.1267972459400113 88.93197713020876 C-0.2880284524050132 78.64704717353521, 0.43755928610555017 65.1259926785564, 3.1601273667063907 54.3186226135511 C5.882695447307231 43.51125254854579, 11.344215670127667 32.34410948889829, 18.462205729545055 24.08775674017693 C25.580195788962442 15.831403991455566, 35.67182707798878 8.802291665104462, 45.86806772321071 4.780506121222928 C56.064308368432634 0.7587205773413928, 69.99660472604097 -0.04857833796588551, 79.63964960087664 -0.04295652311228082 C89.2826944757123 -0.03733470825867613, 99.6892741728729 3.70991732559511, 103.72633697222467 4.814237010344556 C107.76339977157645 5.918556695094002, 104.25394538212772 5.150541749362367, 103.86202639698729 6.582961585384396" stroke="#364fc7" stroke-width="1" fill="none"></path></g><g transform="translate(69.66796875 377.171875) rotate(0 24 11.5)"><text x="0" y="18" font-family="Helvetica, Segoe UI Emoji" font-size="20px" fill="#364fc7" text-anchor="start" style="white-space: pre;" direction="ltr">Array</text></g><g><g transform="translate(29.890625 520.515625) rotate(0 67.07928599379959 2.514548525027976)"><path d="M-0.4816757831722498 0.22827049233019348 C22.008449209357305 0.9279567612955967, 112.00193666679165 3.6657020741452775, 134.6402477707714 4.2571741554886104 M1.4663057013228538 -0.6974914445355536 C23.863635182368256 0.1900599732125796, 111.63888532915462 4.814582998168965, 133.92579332429915 5.7265884945914145" stroke="#364fc7" stroke-width="1" fill="none"></path></g></g><g transform="translate(58.06640625 456.31640625) rotate(0 41.5 11.5)"><text x="0" y="18" font-family="Helvetica, Segoe UI Emoji" font-size="20px" fill="#364fc7" text-anchor="start" style="white-space: pre;" direction="ltr">prototype</text></g><g transform="translate(640.97265625 419.80078125) rotate(0 81.6328125 80.232421875)"><path d="M-1.4291164334863424 -0.8793608192354441 L163.63951968587935 0.27038208208978176 L162.8791095558554 158.97783944569528 L0.8152269069105387 160.2828672286123" stroke="none" stroke-width="0" fill="#ced4da"></path><path d="M-0.2159076575189829 1.9214639011770487 C41.41023640173517 -1.2100466840360606, 83.79435127092584 0.27276446889896744, 162.98461422882974 -0.6709351595491171 M0.15886491257697344 0.5681950030848384 C58.84244403662597 0.46416534992356895, 119.02412820980827 2.0417414209475098, 162.46137734968215 0.1616715071722865 M164.4290555473417 -0.04404926858842373 C164.59864528637223 49.24506423243838, 161.79420079450898 96.77172083954429, 163.7977655287832 159.420308643952 M163.41496464330703 0.7739220736548305 C162.16990466586412 42.06903848170369, 162.08924298158945 84.53797061698644, 162.35568833071738 160.91188080888242 M162.45755413733423 162.07623201049864 C98.49239682334445 159.81188210820036, 33.581963248978695 159.90937450503188, 0.5637271162122488 160.13647043146193 M163.56329631526023 161.3569026766345 C105.95183012857596 158.77271910254422, 47.765287838681246 158.08290206138554, 0.12175395805388689 159.6501529691741 M-0.7227580789476633 160.2096148673445 C-0.021003096830863877 110.82762845073776, 1.924312085378151 64.01338533552261, -0.7258628252893686 1.8755604568868876 M0.22278693038970232 160.6127605913207 C-0.3468471679916185 119.02138208197829, -1.1504416678180498 77.16039888971353, 0.3990090461447835 0.5656664548441768" stroke="#364fc7" stroke-width="1" fill="none"></path></g><g transform="translate(653.50390625 384.6640625) rotate(0 67.5 11.5)"><text x="0" y="18" font-family="Helvetica, Segoe UI Emoji" font-size="20px" fill="#364fc7" text-anchor="start" style="white-space: pre;" direction="ltr">Array.prototype</text></g><g><g transform="translate(156.046875 468.8806854333675) rotate(0 239.56719109686085 2.2649172384063263)"><path d="M1.152878340706229 -0.6096157696098089 C80.88461937115837 0.0678666354826003, 399.07334981939437 3.1001392357602264, 478.8353814534842 3.935349836043065 M0.29900074023753387 1.6847320060059428 C79.80204234761494 2.5223631711786894, 397.8740287293741 4.481802868786408, 477.6968582014366 5.139450246422534" stroke="#364fc7" stroke-width="1" fill="none"></path></g><g transform="translate(156.046875 468.8806854333675) rotate(0 239.56719109686085 2.2649172384063263)"><path d="M448.41770781188393 14.594371954511862 C457.91329536432835 12.414776590742722, 468.2173343212408 7.47484801689437, 478.98577160600564 6.278402198060398 M448.7747280028009 14.316007706869405 C455.58572635530146 13.545200534945419, 460.90699625522643 10.824558026489967, 477.74218091487876 4.91215081228966" stroke="#364fc7" stroke-width="1" fill="none"></path></g><g transform="translate(156.046875 468.8806854333675) rotate(0 239.56719109686085 2.2649172384063263)"><path d="M448.56382809264784 -5.926316417211657 C457.9880088531874 -1.1874366088161512, 468.2427938869801 0.7897061652765522, 478.98577160600564 6.278402198060398 M448.9208482835648 -6.204680664854115 C455.7326681508681 -2.5117592729490235, 461.0221593919539 -0.7695034657091897, 477.74218091487876 4.91215081228966" stroke="#364fc7" stroke-width="1" fill="none"></path></g></g><g><g transform="translate(642.27734375 538.08203125) rotate(0 81.67911019660534 1.198121399153024)"><path d="M-0.506736746057868 0.11053104065358643 C26.67787536519269 0.3612063414106767, 136.446811168765 1.619193081681927, 163.8649571392685 1.9827883806079627 M1.4280877329222856 -0.8770441083423793 C28.40975421064223 -0.5050449639869233, 136.04353964778906 2.539604050287356, 163.0449399550073 3.273286906648427" stroke="#364fc7" stroke-width="1" fill="none"></path></g></g><g transform="translate(667.42578125 545.73046875) rotate(0 53 11.5)"><text x="0" y="18" font-family="Helvetica, Segoe UI Emoji" font-size="20px" fill="#364fc7" text-anchor="start" style="white-space: pre;" direction="ltr">[[prototype]]</text></g><g transform="translate(637 767.748046875) rotate(0 81.6328125 80.232421875)"><path d="M1.4544588271528482 0.1820454951375723 L162.78372078575194 -1.9983259681612253 L162.07281588949263 162.376270448789 L-1.5218227561563253 160.5585813280195" stroke="none" stroke-width="0" fill="#ced4da"></path><path d="M-1.2883190158754587 -0.447215324267745 C63.49804985124648 -2.2489307365818236, 126.26034607127369 -2.742127045194647, 164.3890228625387 -0.4617773946374655 M-0.9542323676869273 0.24937938433140516 C61.37102178023633 0.4901641103714065, 123.51167223705852 -0.5303003993541642, 162.77742683608085 0.18642945867031813 M162.16642621718347 0.5755546633154154 C160.48326251285576 33.99126022818782, 162.02759769933724 66.87674766867057, 162.79436585865915 160.31483208574355 M162.41304385382682 -0.9445069255307317 C163.84571468694583 38.27636550807693, 163.26777192814723 76.80835225290285, 162.6148540051654 161.0981520889327 M163.162604784593 159.57602583803236 C107.18786476867244 161.8534451895552, 53.10689878534467 161.46113617952636, 0.589713966473937 158.5477194134146 M163.01596632320434 161.19085614662617 C125.94751268238323 160.93541295206217, 89.2169773231173 161.27652261531023, 0.9809266896918416 160.777081864886 M-1.2847076300531626 162.34283345378935 C-0.4794035190037176 110.69284170861536, -1.1969053381374761 63.284238284364235, -0.9383727554231882 -0.1912770327180624 M0.4978761048987508 161.442303317599 C-0.45956302903807233 120.887761949973, -0.9860855760446794 82.073961358409, -0.8042562333866954 -0.25264180917292833" stroke="#364fc7" stroke-width="1" fill="none"></path></g><g><g transform="translate(636.7636718749999 886.8125) rotate(0 81.67204479297624 1.5477233992144193)"><path d="M1.1267938222736118 0.2645949695259333 C28.446250022078555 0.774268878872196, 135.94488655788203 2.016301148508986, 163.08486773632467 2.287218878045678 M0.2592218496277927 -0.6420966168120503 C27.446525562393173 0.12487540564189359, 134.6681046161925 3.145193852198621, 161.85530361551793 3.7375434152409435" stroke="#364fc7" stroke-width="1" fill="none"></path></g></g><g transform="translate(672.0546874999999 895.6328125) rotate(0 53 11.5)"><text x="0" y="18" font-family="Helvetica, Segoe UI Emoji" font-size="20px" fill="#364fc7" text-anchor="start" style="white-space: pre;" direction="ltr">[[prototype]]</text></g><g><g transform="translate(773.46875 561.00390625) rotate(0 120.56836538357294 -146.26992740904944)"><path d="M-0.8069968733936548 -0.14607558511197571 C39.676809135965996 -48.69131707019495, 201.3618942111358 -243.73013068918817, 241.94372764053938 -292.39377923298696" stroke="#364fc7" stroke-width="1.5" fill="none" stroke-dasharray="3 6"></path></g><g transform="translate(773.46875 561.00390625) rotate(0 120.56836538357294 -146.26992740904944)"><path d="M231.57150361516236 -264.1796450279812 C234.212631782773 -269.09228545905626, 236.8847332163207 -278.25743449802377, 241.9031705894619 -294.1231917942695" stroke="#364fc7" stroke-width="1.5" fill="none" stroke-dasharray="3 4"></path></g><g transform="translate(773.46875 561.00390625) rotate(0 120.56836538357294 -146.26992740904944)"><path d="M215.78988062961326 -277.2968237767758 C221.78145667929803 -279.2165792904208, 227.92668772371388 -285.4949744153451, 241.9031705894619 -294.1231917942695" stroke="#364fc7" stroke-width="1.5" fill="none" stroke-dasharray="3 4"></path></g></g><g><g transform="translate(771.7579014149035 894.5703125) rotate(0 1.8373353416861278 -160.92489470278565)"><path d="M-0.18219237662851806 -1.0082122351974248 C0.4677362100164525 -54.485130707291574, 3.0516804908118806 -267.6296500770639, 3.8568630600007965 -320.84157717037385" stroke="#364fc7" stroke-width="1.5" fill="none" stroke-dasharray="3 6"></path></g><g transform="translate(771.7579014149035 894.5703125) rotate(0 1.8373353416861278 -160.92489470278565)"><path d="M12.058489146469464 -292.87053144328786 C10.270500172910962 -299.9623723227334, 8.277413866417575 -310.4218448071919, 2.0156115432861044 -319.893540505277" stroke="#364fc7" stroke-width="1.5" fill="none" stroke-dasharray="3 4"></path></g><g transform="translate(771.7579014149035 894.5703125) rotate(0 1.8373353416861278 -160.92489470278565)"><path d="M-8.460877492520412 -293.1454771116473 C-4.16604001431793 -300.12465889796476, -0.07634554133428395 -310.5026262240857, 2.0156115432861044 -319.893540505277" stroke="#364fc7" stroke-width="1.5" fill="none" stroke-dasharray="3 4"></path></g></g><g><g transform="translate(875.5859375 228.6953125) rotate(0 81.44425611756748 0.46831464552775515)"><path d="M-0.8897416625171899 -0.7197913672775029 C26.411132511124016 -0.8014617826789617, 136.09478199146687 -0.07302115224301824, 163.77825389765204 -0.1795439388602973 M0.8440052353218199 1.5167142195627092 C27.967424483187493 1.628321693651378, 135.32896077740935 1.8011550779268146, 162.69943626154213 1.4543434007093312" stroke="#364fc7" stroke-width="1" fill="none"></path></g></g><g transform="translate(899.1484375 236.8359375) rotate(0 53 11.5)"><text x="0" y="18" font-family="Helvetica, Segoe UI Emoji" font-size="20px" fill="#364fc7" text-anchor="start" style="white-space: pre;" direction="ltr">[[prototype]]</text></g><g><g transform="translate(995.875 260.9609375) rotate(0 136.90157487727708 -108.66816146112978)"><path d="M-0.7202412273734808 -0.36428654529154303 C45.14454742806653 -36.54745396710932, 228.52353038129704 -180.8467352423817, 274.5233909819275 -216.97203637696802" stroke="#364fc7" stroke-width="1.5" fill="none" stroke-dasharray="3 6"></path></g><g transform="translate(995.875 260.9609375) rotate(0 136.90157487727708 -108.66816146112978)"><path d="M258.09721197881754 -190.94139547702318 C262.74235410895005 -195.82102194327393, 266.37088194190056 -203.6786148189598, 275.96176996603606 -216.98009447231888" stroke="#364fc7" stroke-width="1.5" fill="none" stroke-dasharray="3 4"></path></g><g transform="translate(995.875 260.9609375) rotate(0 136.90157487727708 -108.66816146112978)"><path d="M245.4132794464324 -207.07328494787382 C253.17740832733833 -207.93164936985445, 259.9078542758484 -211.8441092940623, 275.96176996603606 -216.98009447231888" stroke="#364fc7" stroke-width="1.5" fill="none" stroke-dasharray="3 4"></path></g></g><g transform="translate(1261.26953125 10) rotate(0 15.5 11.5)"><text x="0" y="18" font-family="Helvetica, Segoe UI Emoji" font-size="20px" fill="#c92a2a" text-anchor="start" style="white-space: pre;" direction="ltr">null</text></g><g transform="translate(696.86328125 727.98828125) rotate(0 18 11.5)"><text x="0" y="18" font-family="Helvetica, Segoe UI Emoji" font-size="20px" fill="#364fc7" text-anchor="start" style="white-space: pre;" direction="ltr">arr1</text></g><g transform="translate(708.65234375 796.4921875) rotate(0 5.5 11.5)"><text x="0" y="18" font-family="Helvetica, Segoe UI Emoji" font-size="20px" fill="#364fc7" text-anchor="start" style="white-space: pre;" direction="ltr">2</text></g><g transform="translate(1127.111328125 533.37890625) rotate(0 81.6328125 80.232421875)"><path d="M0.8976566549390554 -1.2156094368547201 L164.5824985858053 -1.195139592513442 L164.6823547836393 159.42822980321944 L1.6081749554723501 160.67811935581267" stroke="none" stroke-width="0" fill="#ced4da"></path><path d="M-1.0366506036370993 -0.1612881664186716 C31.272086039702117 -2.6104745315764744, 63.808661199276685 -1.9865666674826936, 162.10445939935744 1.37529138289392 M0.6912217913195491 -0.03291121404618025 C37.631381333871104 -0.12961509587432385, 76.79073624232842 0.34330827234123706, 163.96307926159352 0.8146613808348775 M161.89586555399 0.34178165160119534 C160.56340805282565 57.99931690153499, 162.61371836652728 113.0043005004678, 164.18760460056365 161.3421425577253 M164.11733727436513 -0.9968041209504008 C162.9211322066405 47.89572811078798, 163.12961629005457 98.49846255962841, 164.12209250312299 161.00768699962646 M164.31566541828215 158.96587464772165 C120.29939062776538 157.3130975594283, 78.36068579879647 159.58764400384433, -1.8161242064088583 162.33327618800104 M162.46312572341412 161.02226367313415 C120.83192062231683 159.66243613253536, 79.18547485196905 160.52058098207416, 0.731509911827743 161.17979758698493 M0.7555248681455851 162.40575400553644 C1.0996246885556682 120.11435058858879, -1.5692460585337178 78.34996095032766, -0.1766855176538229 -0.7866226676851511 M-0.165242207236588 160.0582582326606 C-0.2699127345958914 103.98986457580648, -0.8777109235206808 49.30458573371068, 0.8301193295046687 0.6901545198634267" stroke="#364fc7" stroke-width="1" fill="none"></path></g><g transform="translate(1171.185546875 497.828125) rotate(0 19 11.5)"><text x="0" y="18" font-family="Helvetica, Segoe UI Emoji" font-size="20px" fill="#364fc7" text-anchor="start" style="white-space: pre;" direction="ltr">obj1</text></g><g><g transform="translate(1128.416015625 651.66015625) rotate(0 81.66300858659667 0.7013652451802272)"><path d="M-0.09677289985120296 -0.924648717418313 C26.88806046384076 -0.5938968175401289, 135.507193105792 0.9156753109147153, 162.7028552506119 1.3625210370868446 M-1.60671740161255 1.2043067605979743 C25.68028648608054 1.6984227186130982, 137.6606221017552 2.0767394498673575, 164.93273457480595 2.327379207778722" stroke="#364fc7" stroke-width="1" fill="none"></path></g></g><g transform="translate(1153.564453125 659.30859375) rotate(0 53 11.5)"><text x="0" y="18" font-family="Helvetica, Segoe UI Emoji" font-size="20px" fill="#364fc7" text-anchor="start" style="white-space: pre;" direction="ltr">[[prototype]]</text></g><g transform="translate(1508.7519531250002 540.48046875) rotate(0 81.6328125 80.232421875)"><path d="M-0.646817272529006 1.4834377523511648 L162.28936874307692 -0.8657779339700937 L163.2989743296057 162.27033314667642 L0.7786669675260782 159.49803320132196" stroke="none" stroke-width="0" fill="#ced4da"></path><path d="M0.6936629172414541 -0.19732183776795864 C61.69277600047208 1.1287225836030848, 123.77200344832673 0.8647037499658472, 161.35409615002573 0.5908828917890787 M-0.3708133725449443 0.46769388299435377 C36.85206565671106 -0.5858749872124462, 72.84654827025662 -0.5915184443867474, 164.0955727370456 0.40721492748707533 M162.1628257986158 -1.220250016078353 C165.78895327130408 57.07466495978698, 164.66706874648185 117.50568261204391, 162.14562193118036 160.7967087570578 M163.9966545375064 -0.4731950284913182 C164.29641403470984 44.35153442946794, 163.60893891964903 87.01310451700483, 162.42748480755836 160.5996143994853 M165.2214566823095 162.4159805122763 C121.54295088567741 161.68634969046528, 83.07724988335684 162.76235389759952, 1.7013593669980764 158.78284811414778 M163.17389589268714 160.60910465102643 C110.7311355450147 160.78346976670946, 59.13132887928805 161.08721542391504, 0.27720865327864885 159.6037461636588 M0.6639281269162893 160.93945812620223 C-2.524532164003067 111.52837609137822, -0.3134050616280366 65.37265942825833, -1.7253346089273691 0.3730924669653177 M-0.13227168004959822 159.57857607584447 C-0.4650879067797724 100.46822738338196, -1.2003249389548365 39.294267660340836, 0.9345697136595845 0.6146480618044734" stroke="#364fc7" stroke-width="1" fill="none"></path></g><g transform="translate(1565.1503906250002 506.75390625) rotate(0 19 23)"><text x="0" y="18" font-family="Helvetica, Segoe UI Emoji" font-size="20px" fill="#364fc7" text-anchor="start" style="white-space: pre;" direction="ltr">obj2</text><text x="0" y="41" font-family="Helvetica, Segoe UI Emoji" font-size="20px" fill="#364fc7" text-anchor="start" style="white-space: pre;" direction="ltr"></text></g><g><g transform="translate(1510.0566406250002 658.76171875) rotate(0 81.39215213825923 1.0513231227733968)"><path d="M-0.11839310266077518 -0.5534585382789373 C27.25994905295471 -0.35981169802447155, 137.0266634391 1.2681344204892715, 164.42399248741566 1.578078791871667 M-1.6396882108971478 1.7703717837855222 C25.63741658447931 2.055402525874476, 136.31781436004985 2.6142395919685564, 163.8974688609317 2.6561047838255765" stroke="#364fc7" stroke-width="1" fill="none"></path></g></g><g transform="translate(1535.2050781250002 666.41015625) rotate(0 53 11.5)"><text x="0" y="18" font-family="Helvetica, Segoe UI Emoji" font-size="20px" fill="#364fc7" text-anchor="start" style="white-space: pre;" direction="ltr">[[prototype]]</text></g><g transform="translate(1185.2109375 572.71875) rotate(0 20 11.5)"><text x="0" y="18" font-family="Helvetica, Segoe UI Emoji" font-size="20px" fill="#364fc7" text-anchor="start" style="white-space: pre;" direction="ltr">prop</text></g><g transform="translate(1569.01953125 585.03125) rotate(0 20 11.5)"><text x="0" y="18" font-family="Helvetica, Segoe UI Emoji" font-size="20px" fill="#364fc7" text-anchor="start" style="white-space: pre;" direction="ltr">prop</text></g><g><g transform="translate(1158.859375 679.40625) rotate(0 -59.478759941086196 -215.53478804565975)"><path d="M0.16801888681948185 0.8396856632083656 C-19.542974089210233 -71.27348422544698, -99.4285361951838 -359.9267975085725, -119.12553876899183 -431.9092617545277" stroke="#364fc7" stroke-width="1.5" fill="none" stroke-dasharray="3 6"></path></g><g transform="translate(1158.859375 679.40625) rotate(0 -59.478759941086196 -215.53478804565975)"><path d="M-100.34930316315823 -409.34315591418823 C-105.87245906433667 -413.0510067153283, -108.41715611170986 -419.88392051804476, -119.74999172315002 -430.87781192436813" stroke="#364fc7" stroke-width="1.5" fill="none" stroke-dasharray="3 4"></path></g><g transform="translate(1158.859375 679.40625) rotate(0 -59.478759941086196 -215.53478804565975)"><path d="M-120.13407943047808 -403.89497911475013 C-121.17396858322016 -408.8747223575558, -119.20045075403694 -416.95182680123446, -119.74999172315002 -430.87781192436813" stroke="#364fc7" stroke-width="1.5" fill="none" stroke-dasharray="3 4"></path></g></g><g><g transform="translate(1527.7109375 684.88671875) rotate(0 -123.95286956764755 -322.0340874161571)"><path d="M-0.23275148011744018 -0.746696748957038 C-41.70697432694336 -108.11346504949033, -206.34045677917698 -536.3678334858268, -247.6729876551777 -643.3214780833572" stroke="#364fc7" stroke-width="1.5" fill="none" stroke-dasharray="3 6"></path></g><g transform="translate(1527.7109375 684.88671875) rotate(0 -123.95286956764755 -322.0340874161571)"><path d="M-229.20701060527003 -621.7031200159504 C-235.9233465120016 -631.6606751721224, -242.34059509433922 -638.3224373455815, -246.98024503365158 -643.9423943959176" stroke="#364fc7" stroke-width="1.5" fill="none" stroke-dasharray="3 4"></path></g><g transform="translate(1527.7109375 684.88671875) rotate(0 -123.95286956764755 -322.0340874161571)"><path d="M-248.35586640189166 -614.3246835917457 C-247.51083820737546 -627.1794707795235, -246.31266754260403 -636.7756060223319, -246.98024503365158 -643.9423943959176" stroke="#364fc7" stroke-width="1.5" fill="none" stroke-dasharray="3 4"></path></g></g><g transform="translate(42.814453125 1038.2763671875) rotate(0 75.9609375 72.44140625)"><path d="M93.57489310882366 1.7976301361009774 C103.92283951252783 3.3236329557410498, 115.90906935075455 10.936253917020466, 124.45851043780854 17.952598516564663 C133.00795152486253 24.96894311610886, 140.15820917644584 34.174501554400216, 144.87153963114758 43.89569773336616 C149.58487008584933 53.61689391233211, 153.09737404973478 65.778878782823, 152.7384931660191 76.27977559036034 C152.37961228230344 86.78067239789769, 148.36172678974114 97.5886130017128, 142.71825432885353 106.90107857859022 C137.07478186796592 116.21354415546763, 128.04613685577442 126.0610913476372, 118.87765840069345 132.15456905162483 C109.70917994561248 138.24804675561248, 98.59360432748882 141.75465739226652, 87.70738359836766 143.46194480251603 C76.82116286924649 145.16923221276554, 64.39301116963013 145.59108150074977, 53.56033402596646 142.3982935131218 C42.727656882302796 139.20550552549386, 30.918937274058003 131.657642192602, 22.711320736385673 124.30521687674832 C14.503704198713342 116.95279156089465, 8.007008270385567 108.06998936693276, 4.3146347999324774 98.28374161799981 C0.6222613294793882 88.49749386906686, -0.7677948599756803 76.20807954511626, 0.5570799136671383 65.5877303831506 C1.8819546873099569 54.96738122118493, 6.336416653595223 43.76624831280509, 12.263883441789389 34.5616466462058 C18.191350229983556 25.357044979606517, 26.572932055197036 16.16513135928805, 36.12188064283213 10.360120383554893 C45.67082923046723 4.555109407821736, 58.56044969757321 0.6649376675170645, 69.55757496759998 -0.26841920819313714 C80.55470023762675 -1.2017760839033387, 95.80588643428945 3.3895867047045636, 102.10463226299272 4.759979129293683 C108.403378091696 6.130371553882802, 107.78900502458053 6.788642974043431, 107.35004993981963 7.953935339341577 M89.82654123815773 -0.02325874882264145 C100.61082067110695 0.7463388053896919, 113.72962652413631 7.404945149581036, 122.84403783510379 14.085500752098547 C131.95844914607127 20.766056354616058, 139.65416472147388 30.087865642469417, 144.51300910396267 40.06007486628242 C149.37185348645147 50.03228409009542, 152.09504072829031 63.0772623631508, 151.99710413003658 73.91875609497656 C151.89916753178284 84.76024982680232, 149.11460010957623 95.93445573899061, 143.9253895144402 105.10903725723698 C138.7361789193042 114.28361877548335, 129.91331887215372 122.70574378985458, 120.86184055922047 128.96624520445476 C111.81036224628721 135.22674661905495, 100.3491410308704 140.4271366392638, 89.6165196368407 142.67204574483807 C78.88389824281101 144.91695485041234, 66.82339670481038 144.93472416429864, 56.466112195042335 142.43569983790042 C46.108827685274285 139.9366755115022, 35.6883223823298 134.73398519066828, 27.47281257823242 127.67789978644873 C19.257302774135038 120.62181438222919, 11.929470976741584 109.77194287498146, 7.173053370458035 100.09918741258312 C2.4166357641744867 90.42643195018478, -1.5774616246447812 80.07873013960916, -1.0656930594688703 69.64136701205871 C-0.5539244942929594 59.20400388450826, 4.54884755952703 46.87465624539814, 10.2436647615135 37.47500864728042 C15.93848196349997 28.075361049162698, 23.880060807823646 19.348655082111467, 33.10321015244995 13.243481423352385 C42.32635949707625 7.138307764593304, 55.96276914905019 2.743367137410204, 65.58256082927129 0.8439666947259354 C75.20235250949239 -1.0554337479583336, 86.8716816037132 1.2915084146442317, 90.82196023377654 1.8470787672467708 C94.77223886383987 2.40264911984931, 89.53634902401528 3.271781413482041, 89.28423260965131 4.177388810341171" stroke="none" stroke-width="0" fill="#ced4da"></path><path d="M98.92447825451947 4.3194037903129185 C109.30822462967099 6.435900373655073, 120.59870121346171 12.628950803218931, 128.59146567343663 19.940566446342046 C136.58423013341155 27.252182089465162, 143.1945301212219 38.04402958385089, 146.88106501436897 48.189097649051604 C150.56759990751604 58.334165714252315, 151.96287525032113 70.45807029934852, 150.7106750323191 80.81097483754631 C149.45847481431707 91.1638793757441, 145.30362028672263 101.54189000362263, 139.3678637063567 110.30652487823835 C133.43210712599077 119.07115975285407, 124.31978112672495 127.54382928764791, 115.09613555012353 133.3987840852406 C105.87248997352212 139.25373888283332, 94.95053284468761 144.42585560090896, 84.02599024674822 145.43625366379453 C73.10144764880883 146.4466517266801, 60.16219419059467 143.4100257714005, 49.54887996248718 139.461172462554 C38.935565734379686 135.5123191537075, 28.044990808462387 129.37204672609187, 20.34610487810326 121.74313381071549 C12.647218947744136 114.1142208953391, 6.417907493048341 103.95188256215332, 3.3555643803324244 93.6876949702957 C0.29322126761650713 83.42350737843807, 0.24317933098654865 70.71127875172446, 1.972046201807757 60.15800825956974 C3.700913072628965 49.60473776741501, 7.455937495239556 38.795374792247834, 13.728765605259674 30.368072017367318 C20.001593715279792 21.9407692424868, 29.729250033121517 14.657440028499341, 39.60901486192847 9.594191610286636 C49.48877969073543 4.530943192073931, 61.404651126610894 0.23498453972236769, 73.0073545781014 -0.011418491908912642 C84.6100580295919 -0.25782152354019294, 101.48653231517993 5.678610993442884, 109.22523557087149 8.115773420498954 C116.96393882656305 10.552935847555023, 119.8872290301133 13.607799348344455, 119.43957411225077 14.611556070427504 M86.23486287886776 0.07895495630103255 C96.79831355405635 0.15035758597550952, 108.56302932450083 4.906661154970775, 117.63219756472091 10.875609766431737 C126.70136580494099 16.8445583778927, 135.1134467467372 26.708235249310214, 140.64987232018828 35.8926466250668 C146.18629789363936 45.07705800082339, 149.74208530203788 55.370592087034694, 150.8507510054274 65.98207802097126 C151.95941670881695 76.59356395490782, 151.251669124397 89.7177645716076, 147.3018665405254 99.56156222868617 C143.35206395665378 109.40535988576474, 135.6934955689978 118.16836519260151, 127.15193550219777 125.04486396344268 C118.61037543539774 131.92136273428383, 106.99985842502419 137.7450845982275, 96.05250613972517 140.82055485373314 C85.10515385442615 143.8960251092388, 72.46923223826349 145.43694024021232, 61.46782179040367 143.49768549647663 C50.46641134254386 141.55843075274095, 38.73884946270256 135.65692680830304, 30.0440434525663 129.18502639131898 C21.349237442430034 122.71312597433493, 14.484594961161065 114.1208272392239, 9.298985729586079 104.66628299457226 C4.1133764980110925 95.21173874992061, -0.855846859472282 83.09184041565527, -1.0696119368836179 72.45776092340914 C-1.2833770142949537 61.82368143116301, 2.954566766874156 50.06594699039182, 8.016395265118064 40.861806041095456 C13.078223763361972 31.65766509179909, 20.530784330003627 23.587810747089108, 29.301359052579826 17.23291522763094 C38.071933775156026 10.878019708172772, 51.56261502631462 5.718117957225971, 60.639843600575276 2.7324329243464547 C69.71707217483593 -0.25325210853306146, 79.71789368962435 -0.3926503229523372, 83.76473049814379 -0.6811949696461568 C87.81156730666324 -0.9697396163399763, 84.96491329181679 -0.1675135321559249, 84.92086445169193 1.0011650441835371" stroke="#364fc7" stroke-width="1" fill="none"></path></g><g transform="translate(90.689453125 997.6083984375) rotate(0 31.5 11.5)"><text x="0" y="18" font-family="Helvetica, Segoe UI Emoji" font-size="20px" fill="#364fc7" text-anchor="start" style="white-space: pre;" direction="ltr">Person</text></g><g><g transform="translate(50.912109375 1140.9521484375) rotate(0 67.5785428719595 2.5098641916550832)"><path d="M0.7294010605663062 0.9185945961624384 C22.820519781733555 1.5865559353182714, 110.83083959085246 4.038749414061506, 133.27506385706366 4.664475569501519 M-0.34680211197584865 0.35525281380862017 C22.052042805242042 0.5844237135971587, 112.9029622883474 1.7234801915412148, 135.50388785589487 2.687723150961101" stroke="#364fc7" stroke-width="1" fill="none"></path></g></g><g transform="translate(79.087890625 1076.7529296875) rotate(0 41.5 11.5)"><text x="0" y="18" font-family="Helvetica, Segoe UI Emoji" font-size="20px" fill="#364fc7" text-anchor="start" style="white-space: pre;" direction="ltr">prototype</text></g><g transform="translate(661.994140625 1040.2373046875) rotate(0 81.6328125 80.232421875)"><path d="M-0.6280698832124472 -1.5613325480371714 L164.1821986977011 -0.0710382703691721 L162.17727600969374 160.77073267661035 L1.5643764082342386 158.47844562493265" stroke="none" stroke-width="0" fill="#ced4da"></path><path d="M0.462928032502532 1.9990569297224283 C59.38058546708926 1.1561507089649967, 117.06677279364376 2.7676182492291264, 161.67497221194208 1.5992676559835672 M-0.7351226536557078 0.8943853853270411 C35.56289660442126 1.6463559474419163, 68.66184683936591 1.026409855074744, 163.13772421795875 0.10135008674114943 M162.39338508807123 0.1072112862020731 C164.00206189946465 54.40807845853087, 164.33779036597542 104.82948434240753, 161.6572233196348 161.30733084119856 M163.23472124058753 0.24462940078228712 C163.27445210505027 45.40834815707822, 163.43927095819015 91.06659186912367, 163.31520685274154 159.83045743685216 M162.074870204553 161.540112728253 C122.13311918068648 160.0056153112529, 78.76055722847522 158.71821429072602, -1.7570194844156504 159.3773115221411 M163.8500624569133 159.84532641153783 C115.75364770083252 158.03302242803431, 70.22677964427567 158.37413781332828, 0.5229829521849751 161.37492867093533 M-1.629884684458375 160.30124025978148 C-2.402841292428384 99.87600691861189, -2.965912722157846 40.33510623430266, 1.19146010838449 0.9708918277174234 M-0.3258360652253032 160.03213925939053 C0.8272129668530033 96.28305044208355, 0.4810741020973728 34.27451929536983, 0.6885732682421803 0.1202313182875514" stroke="#364fc7" stroke-width="1" fill="none"></path></g><g transform="translate(674.525390625 1005.1005859375) rotate(0 76 11.5)"><text x="0" y="18" font-family="Helvetica, Segoe UI Emoji" font-size="20px" fill="#364fc7" text-anchor="start" style="white-space: pre;" direction="ltr">Person.prototype</text></g><g><g transform="translate(177.068359375 1089.3172088708675) rotate(0 239.75533011304213 2.410608132551829)"><path d="M1.1994341578334569 0.2862327788025141 C81.20958590911079 0.9276201368978528, 399.32264382621884 3.5711426608815335, 479.14066186472763 4.126080968073552 M0.3699983613565565 -0.6090989576652646 C80.2976163179924 0.17348726083694976, 398.2542020897815 4.5900830920964015, 478.16241082858284 5.430315222769027" stroke="#364fc7" stroke-width="1" fill="none"></path></g><g transform="translate(177.068359375 1089.3172088708675) rotate(0 239.75533011304213 2.410608132551829)"><path d="M450.323810847216 15.245211763300178 C455.40677025469324 14.360452477819674, 460.8796491673734 12.23093950206529, 476.411432811357 3.9704457132061766 M450.7236913374818 15.876357383087454 C455.77721655071605 12.704400737639414, 462.92707191384443 10.591682526900346, 478.43244791060675 6.390301599345152" stroke="#364fc7" stroke-width="1" fill="none"></path></g><g transform="translate(177.068359375 1089.3172088708675) rotate(0 239.75533011304213 2.410608132551829)"><path d="M450.57788434601196 -5.274423931395978 C455.6516015094556 -1.574350213324867, 461.067742605203 0.878430277530228, 476.411432811357 3.9704457132061766 M450.97776483627774 -4.643278311608702 C455.8215144319559 -3.0535316668290253, 462.91243866796765 -0.40681898358159696, 478.43244791060675 6.390301599345152" stroke="#364fc7" stroke-width="1" fill="none"></path></g></g><g><g transform="translate(663.298828125 1158.5185546875) rotate(0 81.0771433408093 1.1145635793078554)"><path d="M0.2862327788025141 -0.057534423843026206 C27.436093379432958 0.30297173323730625, 136.11350887355707 2.7841010974099234, 163.17692042328417 3.3624711003154513 M-1.0226337416656315 -1.1333439416997135 C25.906036682358632 -0.5938527414513132, 134.3152536475969 1.266088774272551, 161.99568396313117 1.717303054202348" stroke="#364fc7" stroke-width="1" fill="none"></path></g></g><g transform="translate(688.447265625 1166.1669921875) rotate(0 53 11.5)"><text x="0" y="18" font-family="Helvetica, Segoe UI Emoji" font-size="20px" fill="#364fc7" text-anchor="start" style="white-space: pre;" direction="ltr">[[prototype]]</text></g><g transform="translate(662.001953125 1387.7705078125) rotate(0 81.6328125 80.232421875)"><path d="M0.3058889266103506 1.5643764082342386 L161.27922687493265 -1.423895126208663 L162.42398778162897 161.7946757618338 L0.32104322873055935 161.54253780283034" stroke="none" stroke-width="0" fill="#ced4da"></path><path d="M1.515576833859086 -1.5906527880579233 C54.47328628320684 -1.1466593856042893, 104.2881677448837 -0.7567774767107041, 161.79537969268858 1.7887707706540823 M-0.08469117898494005 -0.12790078204125166 C63.3983736580427 1.429347307554417, 127.55403351917923 0.661693931690388, 162.8295050440356 0.05360564310103655 M163.14991145767272 -1.6084016803652048 C165.66099418191104 41.38311564735668, 164.19908411292224 83.21091189048384, 163.20381748117507 160.95410255156457 M162.95744927506894 0.04958185274153948 C162.18348458320096 55.794125790799086, 163.03716272026494 111.94732775650556, 162.6702476022765 161.0024782391265 M162.44041406549513 158.70782426558435 C110.67718197321082 158.8722966099116, 59.38257208856811 157.22373018506494, 1.1688749138265848 159.22580907307565 M162.73960571270436 160.98782670218498 C126.97473779514402 162.05932015648767, 89.54841949153632 160.37397078147814, -0.8149423422291875 160.38304200489074 M-1.0899050887674093 161.6563038583845 C1.8285127273983743 124.70772666500815, 0.9751803866810588 83.8257750667246, -0.6516721304506063 -0.8654089812189341 M0.8884566007182002 161.15341701824218 C1.1510619358489567 97.22397811443261, 0.2501643435428196 35.06946921092822, -0.03551913518458605 -0.5441744951531291" stroke="#364fc7" stroke-width="1" fill="none"></path></g><g><g transform="translate(657.7851562499999 1507.2490234375) rotate(0 82.25413420861588 0.7170068463124153)"><path d="M0.9093461003154515 -0.9543916728347539 C28.349044228220983 -0.6466064201047022, 137.60801668626567 0.9707283550252517, 164.58065434359014 1.402538189664483 M-0.07238592635840169 1.1589487535879015 C27.29828672676037 1.6180405747021236, 136.59437806197752 2.1606953421359263, 164.13637819159777 2.388405365459621" stroke="#364fc7" stroke-width="1" fill="none"></path></g></g><g transform="translate(693.0761718749999 1516.0693359375) rotate(0 53 11.5)"><text x="0" y="18" font-family="Helvetica, Segoe UI Emoji" font-size="20px" fill="#364fc7" text-anchor="start" style="white-space: pre;" direction="ltr">[[prototype]]</text></g><g><g transform="translate(792.7793857899035 1515.0068359375) rotate(0 2.0766535813750124 -161.19414668118304)"><path d="M0.9595605935901401 -1.050586810335517 C1.3402940050642123 -54.447805956868145, 2.822419819673117 -268.27150661631333, 3.1937465691598845 -321.3377065520305" stroke="#364fc7" stroke-width="1.5" fill="none" stroke-dasharray="3 6"></path></g><g transform="translate(792.7793857899035 1515.0068359375) rotate(0 2.0766535813750124 -161.19414668118304)"><path d="M11.506840638964503 -294.53603942560954 C8.339628656503525 -305.0860270000097, 7.707630183911176 -312.4819989510247, 4.264256395924349 -322.7578588045705" stroke="#364fc7" stroke-width="1.5" fill="none" stroke-dasharray="3 4"></path></g><g transform="translate(792.7793857899035 1515.0068359375) rotate(0 2.0766535813750124 -161.19414668118304)"><path d="M-9.013870530960046 -294.6789221270592 C-4.470969823108239 -305.3393079536699, 2.6082807784493296 -312.6815876086361, 4.264256395924349 -322.7578588045705" stroke="#364fc7" stroke-width="1.5" fill="none" stroke-dasharray="3 4"></path></g></g><g transform="translate(698.728515625 1348.5927734375) rotate(0 36 11.5)"><text x="0" y="18" font-family="Helvetica, Segoe UI Emoji" font-size="20px" fill="#364fc7" text-anchor="start" style="white-space: pre;" direction="ltr">person1</text></g><g transform="translate(713.537109375 1418.1474609375) rotate(0 25 11.5)"><text x="0" y="18" font-family="Helvetica, Segoe UI Emoji" font-size="20px" fill="#364fc7" text-anchor="start" style="white-space: pre;" direction="ltr">name</text></g><g transform="translate(701.0859375 1084.5546875) rotate(0 43 11.5)"><text x="0" y="18" font-family="Helvetica, Segoe UI Emoji" font-size="20px" fill="#364fc7" text-anchor="start" style="white-space: pre;" direction="ltr">greeting()</text></g><g transform="translate(952.6640625000002 1390.5947265625) rotate(0 81.6328125 80.232421875)"><path d="M1.0407402273267508 1.5715132895857096 L161.78362659178674 -1.5451628621667624 L164.7091053482145 158.70473241247237 L1.6656262036412954 161.90731971897185" stroke="none" stroke-width="0" fill="#ced4da"></path><path d="M1.2063437048345804 -0.5830239299684763 C35.63624957106513 0.9512148939813778, 67.87016582853103 -0.15003593333109166, 163.08835946954787 -0.7844204548746347 M0.8364024935290217 -0.015234860591590405 C43.37545647571824 0.10048759711717148, 86.42374488631322 -0.4287557827141426, 163.02735786419362 0.6070874901488423 M162.29041015543044 1.4042377825826406 C164.12464103335265 61.5457891704591, 164.36397722596053 118.23986703233459, 162.71172683872283 159.246700739488 M163.01926236134022 -0.17093074601143599 C163.53369196204778 39.84306323517631, 163.77022169975874 79.6365953709661, 162.8269045529887 160.9901460679248 M162.20355718769133 161.38947579823434 C101.02500323089333 161.2954884580434, 35.8751911106432 160.1690949610532, -1.2224829252809286 161.99155751429498 M163.90402175765485 160.5147325070575 C114.46518017056368 162.1115171992332, 66.11363697672203 161.08663592572512, 0.7653319714590907 159.80443805176765 M1.1660606805235147 159.37995330058038 C-0.38192675481997873 118.6069588679511, -0.7484903730031147 79.19105633900836, -1.2967283185571432 1.6273349281400442 M-0.7468986632302403 160.9194709630683 C-1.5158796512389745 104.38737682061219, 0.06647718913311107 47.49523343041437, 0.5376779614016414 0.25287481863051653" stroke="#364fc7" stroke-width="1" fill="none"></path></g><g><g transform="translate(952.4277343750002 1509.6591796875) rotate(0 81.88844270279628 0.716066055688998)"><path d="M0.7238062229007483 -0.34981435798108573 C28.032556093359986 0.15463570492962997, 137.152529756849 2.5611584835996233, 164.13221964500843 3.0112029526382686 M-0.35533423941582454 -1.5790708412602545 C26.815642321097354 -1.4300651846205197, 135.8997604946171 0.31610128821184236, 163.45251527626067 1.1816191289946436" stroke="#364fc7" stroke-width="1" fill="none"></path></g></g><g transform="translate(987.7187500000002 1518.4794921875) rotate(0 53 11.5)"><text x="0" y="18" font-family="Helvetica, Segoe UI Emoji" font-size="20px" fill="#364fc7" text-anchor="start" style="white-space: pre;" direction="ltr">[[prototype]]</text></g><g transform="translate(993.3710937500002 1351.0029296875) rotate(0 36 11.5)"><text x="0" y="18" font-family="Helvetica, Segoe UI Emoji" font-size="20px" fill="#364fc7" text-anchor="start" style="white-space: pre;" direction="ltr">person2</text></g><g transform="translate(1024.3164062500002 1419.3388671875) rotate(0 25 11.5)"><text x="0" y="18" font-family="Helvetica, Segoe UI Emoji" font-size="20px" fill="#364fc7" text-anchor="start" style="white-space: pre;" direction="ltr">name</text></g><g><g transform="translate(976.23828125 1535.54296875) rotate(0 -84.13327022530143 -176.28665489815182)"><path d="M-1.0057638321071862 0.3740603540092706 C-28.874528101459145 -58.34585532608131, -139.37569650746883 -293.84546098572514, -167.26077661849558 -352.9473701503128" stroke="#364fc7" stroke-width="1.5" fill="none" stroke-dasharray="3 6"></path></g><g transform="translate(976.23828125 1535.54296875) rotate(0 -84.13327022530143 -176.28665489815182)"><path d="M-145.3527722738395 -330.02686064105694 C-150.20927507613945 -338.22194330521, -158.65920994254546 -345.09923363526997, -165.696046654135 -353.86726050004364" stroke="#364fc7" stroke-width="1.5" fill="none" stroke-dasharray="3 4"></path></g><g transform="translate(976.23828125 1535.54296875) rotate(0 -84.13327022530143 -176.28665489815182)"><path d="M-163.92197146189858 -321.29159625467315 C-163.23658133904797 -331.9165428980479, -166.19032880923103 -341.37933244845067, -165.696046654135 -353.86726050004364" stroke="#364fc7" stroke-width="1.5" fill="none" stroke-dasharray="3 4"></path></g></g><g><g transform="translate(790.94921875 1160.4765625) rotate(0 107.85428152419632 -445.2960767719894)"><path d="M-0.22866548560559752 -0.31165566779673093 C35.81032030321658 -148.60182051596544, 179.89112490154804 -741.9757627918074, 215.93722853399814 -890.2804978761822" stroke="#364fc7" stroke-width="1.5" fill="none" stroke-dasharray="3 6"></path></g><g transform="translate(790.94921875 1160.4765625) rotate(0 107.85428152419632 -445.2960767719894)"><path d="M218.73383716898252 -861.6822295763759 C217.2062110009535 -869.7116822594166, 216.52743855886428 -875.9548726204713, 214.7881127871573 -891.24671363011" stroke="#364fc7" stroke-width="1.5" fill="none" stroke-dasharray="3 4"></path></g><g transform="translate(790.94921875 1160.4765625) rotate(0 107.85428152419632 -445.2960767719894)"><path d="M198.79256863003272 -866.5263818699492 C202.73251923721872 -873.1843559603876, 207.5431024264177 -878.0940667276238, 214.7881127871573 -891.24671363011" stroke="#364fc7" stroke-width="1.5" fill="none" stroke-dasharray="3 4"></path></g></g></svg>