<svg version="1.1" xmlns="http://www.w3.org/2000/svg" viewBox="0 0 802.4453125 509.2890625">
  <!-- svg-source:excalidraw -->
  <defs>
    <style>
      @font-face {
        font-family: "Virgil";
        src: url("https://excalidraw.com/FG_Virgil.woff2");
      }
      @font-face {
        font-family: "Cascadia";
        src: url("https://excalidraw.com/Cascadia.woff2");
      }
    </style>
  </defs>
  <rect x="0" y="0" width="802.4453125" height="509.2890625" fill="#ffffff"></rect><g transform="translate(10 50.66796875) rotate(0 75.9609375 72.44140625)"><path d="M59.75940299381816 2.3255052828735074 C70.01191627744305 -1.0466856822971935, 84.59733905230877 -0.9679830103157152, 95.52934190153273 1.4952310711680354 C106.4613447507567 3.958445152651786, 116.95937006373629 10.072311422515536, 125.35142008916196 17.104789771776012 C133.74347011458764 24.137268121036488, 141.42250407223858 33.90832933644683, 145.88164205408674 43.690101166730884 C150.3407800359349 53.471872997014934, 152.70374783469748 64.99458748913946, 152.10624798025094 75.79542075348031 C151.5087481258044 86.59625401782117, 147.75442779716164 99.26711764909477, 142.2966429274075 108.49510075277601 C136.83885805765337 117.72308385645725, 128.65403853617886 125.21055100736666, 119.3595387617262 131.16331937556777 C110.06503898727355 137.11608774376887, 97.50835344046641 142.65202702920533, 86.52964428069161 144.21171096198265 C75.55093512091682 145.77139489475996, 64.0586498704218 143.66355938358248, 53.48728380307743 140.52142297223173 C42.91591773573305 137.37928656088098, 31.170042110205202 132.66734928046387, 23.10144787662535 125.3588924938781 C15.0328536430455 118.05043570729234, 8.793549599980816 106.93378745582092, 5.075718401598337 96.67068225271711 C1.3578872032158587 86.40757704961331, -0.29717605315836226 74.45329835815396, 0.7944606863304813 63.78026127525523 C1.8860974258193248 53.10722419235649, 5.6176092737948755 41.62513025168269, 11.625538838531398 32.632459755324696 C17.63346840326792 23.6397892589667, 26.898355570167148 15.337402131061289, 36.84203807474962 9.824238297107264 C46.785720579332086 4.311074463153241, 63.60490200715924 0.9143643322947608, 71.2876338660262 -0.44652324839944413 C78.97036572489316 -1.807410829093649, 82.84201252860757 0.26428188879238945, 82.93842922795137 1.6589128129420345 M110.74993235561826 7.669544408426901 C120.7234810600283 11.079702122933044, 129.5203842089845 20.15259196666849, 136.42707601223958 28.86765383535085 C143.33376781549467 37.58271570403321, 149.86394644044577 49.3150073086118, 152.19008317514874 59.95991562052108 C154.5162199098517 70.60482393243036, 153.50335582670675 82.73165549550278, 150.38389642045746 92.73710370680655 C147.26443701420817 102.74255191811032, 141.1909197443595 112.35771041246882, 133.473326737653 119.99260488834373 C125.7557337309465 127.62749936421865, 114.51112778620353 134.44587203971912, 104.07833838021853 138.54647056205607 C93.64554897423352 142.64706908439302, 81.96990964423816 144.99633214189052, 70.87659030174297 144.59619602236552 C59.78327095924777 144.19605990284052, 47.531250513457294 141.35331022181165, 37.518422325247364 136.1456538449061 C27.505594137037434 130.93799746800053, 16.821515718300184 122.75180949746921, 10.799621172483384 113.3502577609321 C4.777726626666584 103.94870602439498, 2.2900909206253175 90.73117099454026, 1.3870550503465608 79.73634342568339 C0.4840191800678042 68.74151585682651, 1.6239173278262555 57.46206757534208, 5.381405950810844 47.38129234779085 C9.138894573795433 37.30051712023961, 16.161349658170312 26.654062924366606, 23.931986788254093 19.25169206037598 C31.702623918337874 11.849321196385354, 41.448200523398356 6.2970151587858165, 52.00522873131354 2.9670671638470907 C62.56225693922872 -0.3628808310916356, 77.2235424132691 -1.7504711912837057, 87.2741560357452 -0.7279959092563786 C97.32476965822129 0.2944793727709485, 108.40313076169079 7.532194858111765, 112.30891046617006 9.101918856011054 C116.21469017064933 10.671642853910342, 111.63382846971523 7.530009775171487, 110.70883426262084 8.690348078139351" stroke="none" stroke-width="0" fill="#ced4da"></path><path d="M88.99056503992867 1.9881931342955 C99.79262212639134 2.612980539571897, 111.73310729457215 8.411290091618614, 120.66507058962623 14.423669574756097 C129.5970338846803 20.43604905789358, 137.51095734544376 28.645089507595642, 142.58234481025312 38.06247003312039 C147.65373227506248 47.47985055864514, 150.6804412724858 60.35572503061656, 151.09339537848237 70.92795272790458 C151.50634948447893 81.5001804251926, 149.5213639124925 92.07745283204143, 145.06006944623243 101.4958362168485 C140.59877497997238 110.91421960165557, 133.08107554996283 120.45605232989593, 124.325628580922 127.43825303674704 C115.57018161188117 134.42045374359816, 103.53013246988169 140.72023051981947, 92.52738763198747 143.38904045795516 C81.52464279409324 146.05785039609086, 68.87796883897373 145.97932994047, 58.309159553556654 143.45111266556114 C47.740350268139586 140.9228953906523, 37.52804172408788 135.09576028468499, 29.114531919485046 128.21973680850198 C20.701022114882214 121.34371333231898, 12.586686441675415 111.63459482529365, 7.828100725939677 102.19497180846315 C3.069515010203941 92.75534879163266, 0.5571755767112899 82.18052695267284, 0.5630176250706285 71.58199870751902 C0.568859673429967 60.98347046236521, 2.706487176337255 48.10899707867102, 7.863153016095708 38.603802337540294 C13.019818855854162 29.098607596409572, 22.322577648891553 20.677083735949655, 31.503012663621348 14.550830260734692 C40.68344767835114 8.42457678551973, 52.59984922024898 3.86329945537709, 62.945763104474466 1.8462814862505184 C73.29167698869996 -0.17073648287605314, 87.78373652322135 1.9086758590970305, 93.5784959689743 2.448722445975264 C99.37325541472724 2.9887690328534973, 98.09413652359139 3.968013895872887, 97.71431977899216 5.086561007519919 M91.13495214955392 1.2052250213373554 C102.23652949308797 2.4266744013846484, 115.6918951276367 8.927604296027784, 124.80371480198554 15.498757750931496 C133.91553447633436 22.069911205835208, 141.06334625173582 30.816946526259052, 145.80587019564695 40.63214575075962 C150.54839413955807 50.44734497526019, 153.64511158919763 63.669881201453954, 153.2588584654522 74.3899530979349 C152.87260534170676 85.11002499441585, 148.791002298835 95.36904358108049, 143.48835145317432 104.95257712964533 C138.18570060751364 114.53611067821018, 130.53256500113392 125.44126524033868, 121.44295339148817 131.89115438932402 C112.35334178184243 138.34104353830935, 100.04288814825054 142.09144532027736, 88.95068179529983 143.65191202355737 C77.85847544234912 145.2123787268374, 65.47046085500241 144.03205018137544, 54.88971527378387 141.25395460900415 C44.30896969256533 138.47585903663287, 33.802380186209845 133.864038981176, 25.466208307988552 126.98333858932975 C17.13003642976726 120.10263819748347, 9.012877741618144 109.8571526889616, 4.872684004456104 99.96975225792653 C0.7324902672940654 90.08235182689145, -0.2027668271078179 78.60087865303595, 0.6250458850163199 67.65893600311934 C1.4528585971404575 56.71699335320272, 4.173603243646792 43.62667011422732, 9.839560277200931 34.31809635842683 C15.50551731075507 25.009522602626333, 25.159722831088068 17.210607684698033, 34.62078808634116 11.807493468316366 C44.08185334159425 6.404379251934699, 57.04385407999065 3.515908222369144, 66.60595180871948 1.8994110601368277 C76.16804953744831 0.2829138979045116, 87.94574921203132 1.9248431792184515, 91.99337445871413 2.10851049492247 C96.04099970539694 2.2921778106264887, 91.3311795517607 2.0751480440581935, 90.89170328881634 3.001414954360939" stroke="#364fc7" stroke-width="1" fill="none"></path></g><g transform="translate(57.875 10) rotate(0 31.5 11.5)"><text x="0" y="18" font-family="Helvetica, Segoe UI Emoji" font-size="20px" fill="#364fc7" text-anchor="start" style="white-space: pre;" direction="ltr">Person</text></g><g><g transform="translate(18.09765625 153.34375) rotate(0 66.93581590987745 2.1418064908869496)"><path d="M-0.7469266321510076 0.30453943870961675 C21.588309563572206 0.7671150690565507, 111.9478841000547 2.8942531154801445, 134.61855845190584 3.692063197121024 M1.061798156630248 -0.5811813013069331 C23.22292222254599 -0.05522360745196542, 111.55645516488082 4.248123336204638, 133.89271711302922 4.864794283080846" stroke="#364fc7" stroke-width="1" fill="none"></path></g></g><g transform="translate(46.2734375 89.14453125) rotate(0 41.5 11.5)"><text x="0" y="18" font-family="Helvetica, Segoe UI Emoji" font-size="20px" fill="#364fc7" text-anchor="start" style="white-space: pre;" direction="ltr">prototype</text></g><g transform="translate(629.1796875 52.62890625) rotate(0 81.6328125 80.232421875)"><path d="M-1.0190074685961008 -0.5095166023820639 L164.38971141539514 0.7753575388342142 L162.54938206635416 158.7021937314421 L-0.8790458086878061 160.04461258091033" stroke="none" stroke-width="0" fill="#ced4da"></path><path d="M-0.24681753478944302 1.8707781787961721 C64.25587984077139 -0.42084695749028467, 126.77547823256756 0.40350035972849585, 162.2656303588301 1.2586760874837637 M0.04819734673947096 0.5341244610026479 C62.3825401733353 1.2951980858836032, 123.97904711583689 1.447198602536664, 163.14024524670094 -0.20607149880379438 M162.76602088846266 -0.3900680188089609 C163.16880353009077 59.837397160202464, 165.2725806406674 118.99824818821291, 163.9681603256613 160.54754874669015 M164.20563607197255 -0.7255448130890727 C162.09533780979302 50.217325905976395, 162.0915416197696 101.13993009214391, 164.1985504804179 159.7107090028003 M165.2427055183798 160.1185464616865 C127.8574307042596 161.38598673186308, 90.83878835168724 160.50159762940413, -0.18962121568620205 159.25914136134088 M163.73196651320904 161.23602786380798 C117.86942869874619 162.6751297027916, 72.78461896503285 162.2670392007679, -0.9685213686898351 160.96985572297126 M1.9660122338682413 161.84138480387628 C-0.6641121488016142 120.1647269606281, 1.3298589009839998 84.10102039606645, 1.7723272386938334 0.00813899002969265 M0.6083593247458339 160.57780855614692 C1.9442396544238365 105.2950506284269, 1.444473692061547 49.914938765465195, 0.5528175411745906 -0.9444699613377452" stroke="#364fc7" stroke-width="1" fill="none"></path></g><g transform="translate(631.96875 19.5546875) rotate(0 75 11.5)"><text x="0" y="18" font-family="Helvetica, Segoe UI Emoji" font-size="20px" fill="#364fc7" text-anchor="start" style="white-space: pre;" direction="ltr">person.prototype</text></g><g><g transform="translate(144.25390625 101.70881043336749) rotate(0 238.87956118676806 2.3166508314344014)"><path d="M-1.1333639536052942 -0.6114044811576604 C78.7210943620031 0.1521497012784987, 398.7596905328954 4.452720641399875, 478.89248632714146 5.2447061440264635 M0.47248124141246084 1.682004220895469 C80.16266670865316 2.0408948465174346, 398.00569831746316 2.884489512386873, 477.7839431337639 3.476218616097217" stroke="#364fc7" stroke-width="1" fill="none"></path></g><g transform="translate(144.25390625 101.70881043336749) rotate(0 238.87956118676806 2.3166508314344014)"><path d="M448.5261176578057 13.09434525126467 C458.53359237064745 11.805345060162294, 464.61363123878175 6.426756016935151, 476.9048973250761 3.055987447007542 M450.0462857750532 13.129532906393209 C456.39714543629697 11.659398433790432, 464.0330941625331 9.585685263806958, 478.7608864450454 3.506797485492175" stroke="#364fc7" stroke-width="1" fill="none"></path></g><g transform="translate(144.25390625 101.70881043336749) rotate(0 238.87956118676806 2.3166508314344014)"><path d="M448.6228224619574 -7.42663548959403 C458.71661718240347 -2.960864650982995, 464.7695324769855 -2.5837693166703435, 476.9048973250761 3.055987447007542 M450.14299057920493 -7.391447834465492 C456.2771936049912 -3.7100754089586427, 463.88886344481057 -0.6317533213537017, 478.7608864450454 3.506797485492175" stroke="#364fc7" stroke-width="1" fill="none"></path></g></g><g transform="translate(298.8203125 353.26953125) rotate(0 86.158203125 73.009765625)"><path d="M0.11147371493279934 0.9476935211569071 L170.43036601506174 -1.0481807049363852 L171.5855982657522 145.18732362426817 L0.50569829903543 144.58212398923934" stroke="none" stroke-width="0" fill="#ced4da"></path><path d="M0.19480382837355137 -0.6244005803018808 C66.82336381932365 1.6826549349782363, 133.29066320541534 -1.019286734009038, 173.65321462787688 1.0772084947675467 M0.9424965856596828 -0.7473136214539409 C68.75841161346071 0.8239260916395506, 136.23563016146437 1.8881647293253263, 171.7468505082652 0.9747907193377614 M171.28237407840788 -1.7669549230486155 C172.09339708152172 44.68062487659009, 173.62107670369502 92.90283808382156, 174.01989292539656 147.02483931742609 M171.78557659965008 0.32194795925170183 C173.69542703197567 38.55676783382114, 173.05690431759922 76.57970130244576, 171.82060049753636 146.98005407769233 M171.8309218827635 147.203640377149 C129.1366799056985 144.49995290505828, 91.24419001908754 146.85258048045577, 1.2362816873937845 146.5728634353727 M172.97115062456578 145.18523591477424 C103.99921891837839 148.17871158294776, 37.116264072237385 146.72991730742552, 0.14550538640469313 145.71003839094192 M1.3204887453466654 147.33175787888467 C-0.11224842138766689 95.51103000834155, 3.3411476009321266 43.7187197250787, 1.1437505427747965 1.982450282201171 M0.6161315022036433 145.3032741220668 C-1.8090301150083177 109.71636575911506, -1.4681197696923844 74.33462421287476, -0.158592295832932 0.5912878485396504" stroke="#364fc7" stroke-width="1" fill="none"></path></g><g><g transform="translate(303.58984375 458.52734375) rotate(0 76.60004349110835 0.21511132140648215)"><path d="M-1.1030529644340277 0.930353805050254 C-1.6485589053481817 1.3085226462533077, -30.76789138180514 1.1367234673351048, -2.5625701691955327 1.1480190124362706 C25.642751043414076 1.1593145575374364, 139.88539277451733 1.0452697680642207, 168.12887431122363 0.9981270756572485 M0.5187054998986422 0.3731856073625388 C-0.2199916456826032 0.5087139633980893, -31.185102444955458 -0.39850586159154777, -3.348640752900392 -0.585127004813403 C24.487820939154677 -0.7717481480352582, 139.2004561560663 -0.6502394815596441, 167.53747565222903 -0.7465412519685923" stroke="#364fc7" stroke-width="1" fill="none"></path></g></g><g transform="translate(347.58984375 315.65234375) rotate(0 36 11.5)"><text x="0" y="18" font-family="Helvetica, Segoe UI Emoji" font-size="20px" fill="#364fc7" text-anchor="start" style="white-space: pre;" direction="ltr">person1</text></g><g transform="translate(335.67578125 394.3046875) rotate(0 25 11.5)"><text x="0" y="18" font-family="Helvetica, Segoe UI Emoji" font-size="20px" fill="#364fc7" text-anchor="start" style="white-space: pre;" direction="ltr">name</text></g><g transform="translate(328.83984375 465.2890625) rotate(0 53 11.5)"><text x="0" y="18" font-family="Helvetica, Segoe UI Emoji" font-size="20px" fill="#364fc7" text-anchor="start" style="white-space: pre;" direction="ltr">[[prototype]]</text></g><g><g transform="translate(462.390625 489.19921875) rotate(0 113.50811304114757 -138.85703138969842)"><path d="M0.48239525221288204 0.901219568029046 C38.215536296988525 -45.50795494181414, 189.06339234573147 -232.09081357183555, 226.5338308300823 -278.6152823474258" stroke="#364fc7" stroke-width="1.5" fill="none" stroke-dasharray="3 6"></path></g><g transform="translate(462.390625 489.19921875) rotate(0 113.50811304114757 -138.85703138969842)"><path d="M218.31231699942714 -249.61850418800321 C220.35305768805668 -260.5389936142993, 223.995647778813 -267.25511728752224, 226.3538532100618 -278.31497835740447" stroke="#364fc7" stroke-width="1.5" fill="none" stroke-dasharray="3 4"></path></g><g transform="translate(462.390625 489.19921875) rotate(0 113.50811304114757 -138.85703138969842)"><path d="M202.34456250261314 -262.50845448718263 C209.3380343609058 -269.4811532077088, 217.95056749551878 -272.1852964338472, 226.3538532100618 -278.31497835740447" stroke="#364fc7" stroke-width="1.5" fill="none" stroke-dasharray="3 4"></path></g></g></svg>