<svg version="1.1" xmlns="http://www.w3.org/2000/svg" viewBox="0 0 439.60546875 217.08203125">
  <!-- svg-source:excalidraw -->
  <defs>
    <style>
      @font-face {
        font-family: "Virgil";
        src: url("https://excalidraw.com/FG_Virgil.woff2");
      }
      @font-face {
        font-family: "Cascadia";
        src: url("https://excalidraw.com/Cascadia.woff2");
      }
    </style>
  </defs>
  <rect x="0" y="0" width="439.60546875" height="217.08203125" fill="#ffffff"></rect><g transform="translate(10 53.72265625) rotate(0 77.05859375 76.6796875)"><path d="M1.0656036082655191 1.7517745848745108 L154.02817397750914 -0.7717441562563181 L153.25502085126936 151.71307412348688 L-0.5896101649850607 152.28710100613534" stroke="none" stroke-width="0" fill="#ced4da"></path><path d="M-1.9432374481111765 1.9851422253996134 C43.47085687640575 -2.548694106530384, 83.38065394445294 -0.17982223887367588, 155.97077587805688 -1.4354028161615133 M0.025881496258080006 -0.6742941262200475 C42.84554998222521 1.074113912910907, 87.28908645677876 -0.15356876698067934, 154.54099940974265 -0.17530481237918139 M153.3848369475454 0.7064824644476175 C152.3009567794048 42.54332828916813, 153.30317007867924 88.263774348874, 156.0035984274 152.30125152505934 M154.11463522631675 0.7991970358416438 C153.9782924985273 41.30005754379818, 152.98568070286348 81.74301380828548, 155.07634451705962 152.82774548511952 M155.34247944317758 151.4267641250044 C111.26588005529266 150.94169738132413, 70.4309550906255 150.35139795381482, 1.553623354062438 152.31229894794524 M154.0141084464267 153.63037996273488 C103.00155657544019 154.82088708800475, 51.59633216569637 153.9809016279618, 0.13337713200598955 153.60691406112164 M-1.5786717776209116 153.29399746097624 C-0.6897065966513765 91.30161522539129, -0.25645920924216625 31.886314670104184, -0.662901783362031 1.068015331402421 M-0.9331390289589763 153.80530812125653 C0.7672670365085652 120.6308187368486, 1.6710461557617238 88.99211407381517, -0.6904601184651256 0.7996215699240565" stroke="#364fc7" stroke-width="1" fill="none"></path></g><g><g transform="translate(12.2109375 166.4140625) rotate(0 76.05835616849365 -0.18719306128129176)"><path d="M-0.4900615487247705 1.0389815066009758 C25.049108370766042 1.070451706026991, 127.13390760086476 0.6552336348841586, 152.60677388571202 0.5439559552818536 M1.4535174088552596 0.5388428522273898 C26.87881423164159 0.16206202955295645, 126.60601014424115 -1.6128950435792406, 151.59378861833363 -1.4078856669738888" stroke="#364fc7" stroke-width="1" fill="none"></path></g></g><g transform="translate(18.76171875 172.1953125) rotate(0 67 12.5)"><text x="0" y="18" font-family="Virgil, Segoe UI Emoji" font-size="20px" fill="#364fc7" text-anchor="start" style="white-space: pre;" direction="ltr">[[prototype]]</text></g><g transform="translate(43.23828125 10) rotate(0 31 12.5)"><text x="0" y="18" font-family="Virgil, Segoe UI Emoji" font-size="20px" fill="#364fc7" text-anchor="start" style="white-space: pre;" direction="ltr">person</text></g><g><g transform="translate(160.94921875 191.046875) rotate(0 122.6196282736957 -49.21208937270566)"><path d="M-0.386527744308114 -0.4807454969733953 C40.51578749368588 -16.718055268221846, 204.4816794266303 -81.93321202394242, 245.6257842916995 -97.94343324843794 M1.6114064605906608 -1.7787408282235266 C42.29639489895353 -17.827995593206335, 203.7158372028296 -80.65319710843886, 244.4331495166197 -96.77666112482548" stroke="#364fc7" stroke-width="1" fill="none"></path></g><g transform="translate(160.94921875 191.046875) rotate(0 122.6196282736957 -49.21208937270566)"><path d="M221.13362442558346 -77.70805311330759 C227.990868905866 -82.51899997890034, 237.47322315287715 -91.0428018461029, 242.8270025011524 -95.09924474619329 M221.79244182767061 -75.93323696439319 C228.0437639368794 -80.33369836318337, 231.66787989317652 -84.99944341871692, 244.4835385652631 -96.44689405877143" stroke="#364fc7" stroke-width="1" fill="none"></path></g><g transform="translate(160.94921875 191.046875) rotate(0 122.6196282736957 -49.21208937270566)"><path d="M213.64104982603504 -96.81253761972756 C222.79565023277118 -95.53066307271438, 234.6580787837011 -97.9857775936362, 242.8270025011524 -95.09924474619329 M214.2998672281222 -95.03772147081317 C222.26283018179583 -95.0157551057287, 227.59750577223758 -95.31993397414777, 244.4835385652631 -96.44689405877143" stroke="#364fc7" stroke-width="1" fill="none"></path></g></g><g transform="translate(420.60546875 75.5625) rotate(0 4.5 12.5)"><text x="0" y="18" font-family="Virgil, Segoe UI Emoji" font-size="20px" fill="#364fc7" text-anchor="start" style="white-space: pre;" direction="ltr">?</text></g><g transform="translate(26.859375 58.984375) rotate(0 45.5 37.5)"><text x="0" y="18" font-family="Virgil, Segoe UI Emoji" font-size="20px" fill="#364fc7" text-anchor="start" style="white-space: pre;" direction="ltr">name</text><text x="0" y="43" font-family="Virgil, Segoe UI Emoji" font-size="20px" fill="#364fc7" text-anchor="start" style="white-space: pre;" direction="ltr">age</text><text x="0" y="68" font-family="Virgil, Segoe UI Emoji" font-size="20px" fill="#364fc7" text-anchor="start" style="white-space: pre;" direction="ltr">greeting()</text></g></svg>